<svg data-v-423bf9ae="" xmlns="http://www.w3.org/2000/svg" viewBox="0 0 276.2184085750843 182" class="iconAboveSlogan"><!----><!----><!----><g data-v-423bf9ae="" id="58b275fe-cf57-45af-81e8-803fd974fa64" fill="white" transform="matrix(6.066733864221661,0,0,6.066733864221661,-2.548029332746381,103.36400970875877)"><path d="M4.62 9.83L0.42 9.83L0.42 9.62L1.74 9.62L1.74 0.17L0.42 0.17L0.42-0.06L4.62-0.06L4.62 0.17L3.30 0.17L3.30 9.62L4.62 9.62L4.62 9.83ZM9.60 0.17L6.92 0.17L6.92 0.17Q6.17 0.17 5.87 0.76L5.87 0.76L5.87 0.76Q6.05 0.64 6.26 0.64L6.26 0.64L6.26 0.64Q6.58 0.64 6.82 0.88L6.82 0.88L6.82 0.88Q7.06 1.11 7.06 1.44L7.06 1.44L7.06 1.44Q7.06 1.76 6.82 2.00L6.82 2.00L6.82 2.00Q6.58 2.24 6.26 2.24L6.26 2.24L6.26 2.24Q5.92 2.24 5.69 2.01L5.69 2.01L5.69 2.01Q5.46 1.78 5.46 1.44L5.46 1.44L5.46 1.44Q5.46 0.78 5.87 0.37L5.87 0.37L5.87 0.37Q6.29-0.04 6.94-0.04L6.94-0.04L15.30-0.04L15.30 0.17L11.20 0.17L11.20 9.62L12.54 9.62L12.54 9.83L8.26 9.83L8.26 9.62L9.60 9.62L9.60 0.17ZM21.70 9.83L21.70 9.83L16.14 9.83L16.14 9.62L17.47 9.62L17.47 0.17L16.14 0.17L16.14-0.04L19.07-0.04L19.07 9.62L21.70 9.62L21.70 9.62Q22.46 9.62 22.78 9.03L22.78 9.03L22.78 9.03Q22.60 9.14 22.39 9.14L22.39 9.14L22.39 9.14Q22.06 9.14 21.83 8.90L21.83 8.90L21.83 8.90Q21.59 8.67 21.59 8.34L21.59 8.34L21.59 8.34Q21.59 8.01 21.83 7.78L21.83 7.78L21.83 7.78Q22.06 7.55 22.39 7.55L22.39 7.55L22.39 7.55Q22.71 7.55 22.95 7.78L22.95 7.78L22.95 7.78Q23.18 8.01 23.18 8.34L23.18 8.34L23.18 8.34Q23.18 9.00 22.77 9.41L22.77 9.41L22.77 9.41Q22.36 9.83 21.70 9.83ZM28.27 9.83L28.27 9.83L28.27 9.83Q27.29 9.83 26.50 9.39L26.50 9.39L26.50 9.39Q25.72 8.96 25.17 8.25L25.17 8.25L25.17 8.25Q24.61 7.55 24.32 6.66L24.32 6.66L24.32 6.66Q24.02 5.78 24.02 4.89L24.02 4.89L24.02 4.89Q24.02 3.99 24.32 3.11L24.32 3.11L24.32 3.11Q24.61 2.23 25.17 1.53L25.17 1.53L25.17 1.53Q25.72 0.83 26.50 0.38L26.50 0.38L26.50 0.38Q27.29-0.06 28.27-0.06L28.27-0.06L28.27-0.06Q29.25-0.06 30.03 0.38L30.03 0.38L30.03 0.38Q30.81 0.83 31.37 1.53L31.37 1.53L31.37 1.53Q31.92 2.23 32.21 3.11L32.21 3.11L32.21 3.11Q32.51 3.99 32.51 4.89L32.51 4.89L32.51 4.89Q32.51 5.78 32.21 6.66L32.21 6.66L32.21 6.66Q31.92 7.55 31.37 8.25L31.37 8.25L31.37 8.25Q30.81 8.96 30.03 9.39L30.03 9.39L30.03 9.39Q29.25 9.83 28.27 9.83ZM30.91 6.96L30.91 2.81L30.91 2.81Q30.91 2.27 30.70 1.78L30.70 1.78L30.70 1.78Q30.49 1.30 30.14 0.94L30.14 0.94L30.14 0.94Q29.78 0.59 29.30 0.38L29.30 0.38L29.30 0.38Q28.81 0.17 28.27 0.17L28.27 0.17L28.27 0.17Q27.72 0.17 27.24 0.38L27.24 0.38L27.24 0.38Q26.75 0.59 26.40 0.94L26.40 0.94L26.40 0.94Q26.04 1.30 25.83 1.78L25.83 1.78L25.83 1.78Q25.62 2.27 25.62 2.81L25.62 2.81L25.62 6.96L25.62 6.96Q25.62 7.50 25.83 7.99L25.83 7.99L25.83 7.99Q26.04 8.48 26.40 8.84L26.40 8.84L26.40 8.84Q26.75 9.20 27.24 9.41L27.24 9.41L27.24 9.41Q27.72 9.62 28.27 9.62L28.27 9.62L28.27 9.62Q28.81 9.62 29.30 9.41L29.30 9.41L29.30 9.41Q29.78 9.20 30.14 8.84L30.14 8.84L30.14 8.84Q30.49 8.48 30.70 7.99L30.70 7.99L30.70 7.99Q30.91 7.50 30.91 6.96L30.91 6.96ZM45.95 0.17L44.60 0.17L44.60 9.62L45.95 9.62L45.95 9.83L41.65 9.83L41.65 9.62L43.01 9.62L43.01 0.52L43.01 0.52Q41.90 2.70 40.81 4.87L40.81 4.87L40.81 4.87Q39.72 7.04 38.63 9.23L38.63 9.23L34.92 0.57L34.92 9.62L36.26 9.62L36.26 9.83L33.35 9.83L33.35 9.62L34.69 9.62L34.69 0.17L33.35 0.17L33.35-0.06L36.26-0.06L39.40 7.24L43.05-0.06L45.95-0.06L45.95 0.17Z"></path></g><!----><g data-v-423bf9ae="" id="e28fb56f-5213-48e0-83b4-44a052a55588" transform="matrix(1.1841469294289795,0,0,1.1841469294289795,79.79265352855103,-13.209010988975827)" stroke="none" fill="white"><path style="text-indent:0;text-transform:none;block-progression:tb" d="M37.688 12a3 3 0 0 0-2.376 1.656L30.125 24H18c-7.15 0-13 5.85-13 13v38c0 7.15 5.85 13 13 13h64c7.15 0 13-5.85 13-13V37c0-7.15-5.85-13-13-13H69.875l-5.188-10.344A3 3 0 0 0 62 12H38a3 3 0 0 0-.313 0zm2.187 6h20.25l5.188 10.344A3 3 0 0 0 68 30h14c3.93 0 7 3.07 7 7v38c0 3.93-3.07 7-7 7H18c-3.93 0-7-3.07-7-7V37c0-3.93 3.07-7 7-7h14a3 3 0 0 0 2.688-1.656L39.874 18zM50 33c-12.667 0-23 10.333-23 23s10.333 23 23 23 23-10.333 23-23-10.333-23-23-23zm0 6c9.424 0 17 7.576 17 17s-7.576 17-17 17-17-7.576-17-17 7.576-17 17-17zm-.125 2A3.005 3.005 0 0 0 50 47c5.006 0 9 3.994 9 9a3 3 0 0 0 2.969 3.031A3 3 0 0 0 65 56c0-8.249-6.751-15-15-15a3.005 3.005 0 0 0-.125 0z" overflow="visible" color="#000"></path></g><!----><g data-v-423bf9ae="" id="8ca75f3e-f1c7-4831-a481-90642f98bc83" fill="white" transform="matrix(0.6060610906102312,0,0,0.6060610906102312,35.52839967944213,203.45757845385103)"><path d="M0.28 3.71L0.28 3.71L0.28 3.71Q0.28 3.50 0.67 3.50L0.67 3.50L0.67 3.50Q0.81 3.50 1.32 3.53L1.32 3.53L1.32 3.53Q1.82 3.56 2.25 3.56L2.25 3.56L2.25 3.56Q2.52 3.56 2.77 3.54L2.77 3.54L2.77 3.54Q3.01 3.53 3.49 3.53L3.49 3.53L3.49 3.53Q3.86 3.53 3.86 3.72L3.86 3.72L3.86 3.72Q3.86 3.84 3.22 4.10L3.22 4.10L3.22 4.10Q2.77 4.28 2.77 5.71L2.77 5.71L2.77 5.71Q2.77 7.60 2.75 9.05L2.75 9.05L2.75 9.05Q2.73 10.50 2.73 10.89L2.73 10.89L2.73 10.89Q2.73 12.07 3.08 12.59L3.08 12.59L3.08 12.59Q3.39 13.02 3.75 13.02L3.75 13.02L3.75 13.02Q3.78 13.02 3.89 13.03L3.89 13.03L3.89 13.03Q4.00 13.03 4.03 13.03L4.03 13.03L4.03 13.03Q4.13 13.03 4.23 13.08L4.23 13.08L4.23 13.08Q4.33 13.13 4.33 13.19L4.33 13.19L4.33 13.19Q4.33 13.34 4.25 13.39L4.25 13.39L4.25 13.39Q4.17 13.44 3.98 13.44L3.98 13.44L3.98 13.44Q3.56 13.44 3.20 13.41L3.20 13.41L3.20 13.41Q2.84 13.38 2.65 13.38L2.65 13.38L2.65 13.38Q2.25 13.38 1.79 13.42L1.79 13.42L1.79 13.42Q1.33 13.45 1.11 13.45L1.11 13.45L1.11 13.45Q0.48 13.45 0.48 13.24L0.48 13.24L0.48 13.24Q0.48 13.12 0.61 13.07L0.61 13.07L0.61 13.07Q0.74 13.02 0.91 13.00L0.91 13.00L0.91 13.00Q1.08 12.98 1.26 12.82L1.26 12.82L1.26 12.82Q1.44 12.66 1.51 12.35L1.51 12.35L1.51 12.35Q1.54 12.25 1.60 10.76L1.60 10.76L1.60 10.76Q1.67 9.27 1.67 8.61L1.67 8.61L1.67 7.81L1.67 7.81Q1.67 7.63 1.67 7.12L1.67 7.12L1.67 7.12Q1.68 6.61 1.68 6.30L1.68 6.30L1.68 5.66L1.68 5.66Q1.68 5.04 1.62 4.63L1.62 4.63L1.62 4.63Q1.58 4.30 1.25 4.12L1.25 4.12L1.25 4.12Q0.92 3.93 0.57 3.92L0.57 3.92L0.57 3.92Q0.28 3.91 0.28 3.71ZM11.87 3.77L11.87 3.77L11.87 3.77Q11.87 3.68 11.97 3.60L11.97 3.60L11.97 3.60Q12.07 3.53 12.22 3.53L12.22 3.53L12.22 3.53Q12.31 3.53 12.50 3.54L12.50 3.54L12.50 3.54Q12.70 3.54 12.75 3.54L12.75 3.54L12.75 3.54Q12.96 3.54 13.15 3.53L13.15 3.53L13.15 3.53Q13.33 3.51 13.44 3.51L13.44 3.51L13.44 3.51Q13.57 3.51 13.73 3.59L13.73 3.59L13.73 3.59Q13.90 3.67 13.93 3.75L13.93 3.75L13.93 3.75Q13.96 3.79 14.08 3.94L14.08 3.94L14.08 3.94Q14.21 4.09 14.42 4.33L14.42 4.33L14.42 4.33Q14.63 4.56 14.80 4.79L14.80 4.79L14.80 4.79Q16.70 7.27 19.89 10.77L19.89 10.77L19.89 10.77Q19.98 10.86 20.10 10.99L20.10 10.99L20.10 10.99Q20.22 11.12 20.27 11.18L20.27 11.18L20.27 11.18Q20.31 11.24 20.37 11.30L20.37 11.30L20.37 11.30Q20.43 11.35 20.46 11.38L20.46 11.38L20.46 11.38Q20.50 11.40 20.52 11.40L20.52 11.40L20.52 11.40Q20.66 11.40 20.66 10.53L20.66 10.53L20.66 8.89L20.66 8.89Q20.66 7.95 20.66 7.31L20.66 7.31L20.66 7.31Q20.65 6.66 20.64 6.38L20.64 6.38L20.64 6.38Q20.64 6.09 20.64 6.02L20.64 6.02L20.64 5.92L20.64 5.92Q20.64 5.45 20.57 5.11L20.57 5.11L20.57 5.11Q20.51 4.77 20.43 4.59L20.43 4.59L20.43 4.59Q20.34 4.41 20.18 4.28L20.18 4.28L20.18 4.28Q20.02 4.16 19.91 4.12L19.91 4.12L19.91 4.12Q19.80 4.09 19.59 4.05L19.59 4.05L19.59 4.05Q19.38 4.00 19.29 3.98L19.29 3.98L19.29 3.98Q19.01 3.89 19.01 3.74L19.01 3.74L19.01 3.74Q19.01 3.53 19.28 3.53L19.28 3.53L19.28 3.53Q19.36 3.53 19.95 3.54L19.95 3.54L19.95 3.54Q20.54 3.54 20.61 3.54L20.61 3.54L20.61 3.54Q20.94 3.54 21.36 3.53L21.36 3.53L21.36 3.53Q21.77 3.51 21.87 3.51L21.87 3.51L21.87 3.51Q22.11 3.51 22.20 3.56L22.20 3.56L22.20 3.56Q22.29 3.61 22.29 3.75L22.29 3.75L22.29 3.75Q22.29 3.81 22.21 3.86L22.21 3.86L22.21 3.86Q22.13 3.91 22.05 3.94L22.05 3.94L22.05 3.94Q21.97 3.98 21.88 4.00L21.88 4.00L21.80 4.03L21.80 4.03Q21.34 4.28 21.34 5.61L21.34 5.61L21.34 6.15L21.34 6.15Q21.34 7.21 21.26 9.83L21.26 9.83L21.26 9.83Q21.18 12.46 21.18 13.08L21.18 13.08L21.18 13.36L21.18 13.36Q21.18 13.68 20.99 13.68L20.99 13.68L20.99 13.68Q20.86 13.68 20.76 13.58L20.76 13.58L20.76 13.58Q16.11 8.19 15.21 7.17L15.21 7.17L15.21 7.17Q14.31 6.16 14.21 6.16L14.21 6.16L14.21 6.16Q14.07 6.16 14.07 7.11L14.07 7.11L14.07 7.11Q14.07 8.44 14.01 9.97L14.01 9.97L14.01 9.97Q13.96 11.51 13.96 11.65L13.96 11.65L13.96 11.65Q13.96 12.28 14.18 12.61L14.18 12.61L14.18 12.61Q14.39 12.94 14.64 12.98L14.64 12.98L14.64 12.98Q14.90 13.02 15.11 13.07L15.11 13.07L15.11 13.07Q15.33 13.12 15.33 13.26L15.33 13.26L15.33 13.26Q15.33 13.41 15.28 13.45L15.28 13.45L15.28 13.45Q15.23 13.50 15.11 13.50L15.11 13.50L15.11 13.50Q15.01 13.50 14.67 13.48L14.67 13.48L14.67 13.48Q14.32 13.47 13.61 13.47L13.61 13.47L13.61 13.47Q13.48 13.47 13.09 13.48L13.09 13.48L13.09 13.48Q12.70 13.50 12.42 13.50L12.42 13.50L12.42 13.50Q12.11 13.50 12.11 13.27L12.11 13.27L12.11 13.27Q12.11 13.15 12.29 13.11L12.29 13.11L12.29 13.11Q12.47 13.08 12.74 12.89L12.74 12.89L12.74 12.89Q13.01 12.71 13.15 12.21L13.15 12.21L13.15 12.21Q13.23 11.89 13.36 9.60L13.36 9.60L13.36 9.60Q13.48 7.32 13.48 6.45L13.48 6.45L13.48 6.45Q13.48 5.25 13.15 4.65L13.15 4.65L13.15 4.65Q12.81 4.06 12.05 3.98L12.05 3.98L12.05 3.98Q11.87 3.96 11.87 3.77ZM40.03 5.32L40.03 5.32L40.03 5.32Q40.03 4.76 40.17 3.88L40.17 3.88L40.17 3.88Q40.17 3.85 40.17 3.78L40.17 3.78L40.17 3.78Q40.18 3.71 40.19 3.69L40.19 3.69L40.19 3.69Q40.19 3.67 40.20 3.62L40.20 3.62L40.20 3.62Q40.21 3.57 40.22 3.55L40.22 3.55L40.22 3.55Q40.24 3.53 40.26 3.49L40.26 3.49L40.26 3.49Q40.28 3.46 40.31 3.44L40.31 3.44L40.31 3.44Q40.33 3.43 40.38 3.42L40.38 3.42L40.38 3.42Q40.42 3.40 40.47 3.39L40.47 3.39L40.47 3.39Q40.53 3.39 40.60 3.39L40.60 3.39L40.60 3.39Q40.82 3.39 41.78 3.44L41.78 3.44L41.78 3.44Q42.74 3.50 44.55 3.50L44.55 3.50L44.55 3.50Q47.63 3.50 48.86 3.43L48.86 3.43L48.86 3.43Q48.87 3.43 48.91 3.42L48.91 3.42L48.91 3.42Q48.94 3.42 48.96 3.42L48.96 3.42L48.96 3.42Q49.11 3.42 49.17 3.50L49.17 3.50L49.17 3.50Q49.22 3.58 49.22 3.65L49.22 3.65L49.22 3.65Q49.22 3.75 49.27 4.24L49.27 4.24L49.27 4.24Q49.31 4.73 49.31 4.79L49.31 4.79L49.31 4.79Q49.31 5.14 49.27 5.23L49.27 5.23L49.27 5.23Q49.22 5.32 49.08 5.32L49.08 5.32L49.08 5.32Q48.97 5.32 48.93 5.15L48.93 5.15L48.93 5.15Q48.82 4.75 48.73 4.60L48.73 4.60L48.73 4.60Q48.65 4.45 48.37 4.34L48.37 4.34L48.37 4.34Q48.09 4.23 47.52 4.23L47.52 4.23L45.70 4.23L45.70 4.23Q45.36 4.23 45.28 4.36L45.28 4.36L45.28 4.36Q45.21 4.49 45.21 5.12L45.21 5.12L45.21 5.81L45.21 5.81Q45.21 7.69 45.19 9.11L45.19 9.11L45.19 9.11Q45.16 10.54 45.16 10.93L45.16 10.93L45.16 10.93Q45.16 11.13 45.16 11.43L45.16 11.43L45.16 11.43Q45.15 11.73 45.15 11.84L45.15 11.84L45.15 11.84Q45.15 12.45 45.35 12.64L45.35 12.64L45.35 12.64Q45.53 12.81 45.75 12.90L45.75 12.90L45.75 12.90Q45.98 12.99 46.14 13.01L46.14 13.01L46.14 13.01Q46.30 13.02 46.41 13.08L46.41 13.08L46.41 13.08Q46.52 13.13 46.52 13.26L46.52 13.26L46.52 13.26Q46.52 13.41 46.45 13.45L46.45 13.45L46.45 13.45Q46.38 13.50 46.19 13.50L46.19 13.50L46.19 13.50Q46.02 13.50 45.44 13.44L45.44 13.44L45.44 13.44Q44.87 13.38 44.63 13.38L44.63 13.38L44.63 13.38Q44.46 13.38 43.95 13.43L43.95 13.43L43.95 13.43Q43.44 13.48 43.20 13.48L43.20 13.48L43.20 13.48Q42.69 13.48 42.69 13.26L42.69 13.26L42.69 13.26Q42.69 13.12 42.77 13.07L42.77 13.07L42.77 13.07Q42.85 13.02 43.10 12.98L43.10 12.98L43.10 12.98Q43.34 12.95 43.41 12.94L43.41 12.94L43.41 12.94Q43.89 12.82 43.95 12.38L43.95 12.38L43.95 12.38Q44.09 11.14 44.09 7.08L44.09 7.08L44.07 4.58L44.07 4.58Q44.07 4.31 43.92 4.25L43.92 4.25L43.92 4.25Q43.76 4.19 43.01 4.19L43.01 4.19L43.01 4.19Q42.03 4.19 41.53 4.24L41.53 4.24L41.53 4.24Q41.03 4.30 40.95 4.35L40.95 4.35L40.95 4.35Q40.87 4.40 40.75 4.54L40.75 4.54L40.75 4.54Q40.63 4.70 40.55 4.91L40.55 4.91L40.55 4.91Q40.47 5.11 40.45 5.24L40.45 5.24L40.45 5.24Q40.43 5.38 40.37 5.47L40.37 5.47L40.37 5.47Q40.31 5.56 40.18 5.56L40.18 5.56L40.18 5.56Q40.03 5.56 40.03 5.32ZM56.87 3.65L56.87 3.65L56.87 3.65Q56.87 3.50 57.26 3.50L57.26 3.50L57.26 3.50Q57.40 3.50 57.90 3.53L57.90 3.53L57.90 3.53Q58.41 3.56 58.84 3.56L58.84 3.56L58.84 3.56Q59.11 3.56 59.35 3.54L59.35 3.54L59.35 3.54Q59.60 3.53 60.07 3.53L60.07 3.53L60.07 3.53Q60.38 3.53 60.38 3.72L60.38 3.72L60.38 3.72Q60.38 3.96 59.89 3.96L59.89 3.96L59.89 3.96Q59.61 3.96 59.49 4.54L59.49 4.54L59.49 4.54Q59.36 5.11 59.36 5.71L59.36 5.71L59.36 6.23L59.36 6.23Q59.36 6.57 59.35 6.99L59.35 6.99L59.35 6.99Q59.33 7.42 59.33 7.52L59.33 7.52L59.33 7.52Q59.33 7.87 59.42 7.97L59.42 7.97L59.42 7.97Q59.50 8.06 59.81 8.06L59.81 8.06L59.81 8.06Q59.84 8.06 60.35 8.06L60.35 8.06L60.35 8.06Q60.87 8.05 62.10 8.05L62.10 8.05L62.10 8.05Q62.22 8.05 62.48 8.06L62.48 8.06L62.48 8.06Q62.75 8.06 63.36 8.07L63.36 8.07L63.36 8.07Q63.97 8.08 64.75 8.08L64.75 8.08L64.75 8.08Q64.85 8.08 64.88 7.84L64.88 7.84L64.88 7.84Q64.90 7.56 64.90 6.13L64.90 6.13L64.90 5.38L64.90 5.38Q64.90 4.83 64.78 4.51L64.78 4.51L64.78 4.51Q64.67 4.19 64.49 4.09L64.49 4.09L64.49 4.09Q64.32 3.99 64.14 3.96L64.14 3.96L64.14 3.96Q63.97 3.93 63.85 3.88L63.85 3.88L63.85 3.88Q63.73 3.84 63.73 3.70L63.73 3.70L63.73 3.70Q63.73 3.56 64.27 3.56L64.27 3.56L64.27 3.56Q64.41 3.56 64.88 3.57L64.88 3.57L64.88 3.57Q65.34 3.58 65.63 3.58L65.63 3.58L65.63 3.58Q65.77 3.58 66.11 3.57L66.11 3.57L66.11 3.57Q66.44 3.56 66.72 3.56L66.72 3.56L66.72 3.56Q67.05 3.56 67.05 3.74L67.05 3.74L67.05 3.74Q67.05 3.92 66.85 3.92L66.85 3.92L66.85 3.92Q66.46 3.92 66.25 4.16L66.25 4.16L66.25 4.16Q66.05 4.40 66.05 4.79L66.05 4.79L66.05 4.79Q66.05 5.25 66.03 6.42L66.03 6.42L66.03 6.42Q66.01 7.59 66.01 8.19L66.01 8.19L66.01 8.19Q66.01 8.51 66.00 9.20L66.00 9.20L66.00 9.20Q65.98 9.90 65.98 10.29L65.98 10.29L65.98 10.81L65.98 10.81Q65.98 11.23 66.01 11.58L66.01 11.58L66.01 11.58Q66.04 11.94 66.04 12.10L66.04 12.10L66.04 12.10Q66.04 13.01 67.21 13.13L67.21 13.13L67.21 13.13Q67.38 13.13 67.38 13.29L67.38 13.29L67.38 13.29Q67.38 13.38 67.24 13.41L67.24 13.41L67.24 13.41Q67.10 13.44 66.70 13.44L66.70 13.44L66.70 13.44Q66.54 13.44 66.19 13.40L66.19 13.40L66.19 13.40Q65.83 13.37 65.62 13.37L65.62 13.37L65.62 13.37Q65.37 13.37 65.01 13.40L65.01 13.40L65.01 13.40Q64.65 13.44 64.30 13.44L64.30 13.44L64.30 13.44Q64.13 13.44 64.06 13.44L64.06 13.44L64.06 13.44Q63.99 13.44 63.92 13.42L63.92 13.42L63.92 13.42Q63.84 13.40 63.82 13.36L63.82 13.36L63.82 13.36Q63.80 13.33 63.80 13.26L63.80 13.26L63.80 13.26Q63.80 13.17 63.94 13.10L63.94 13.10L63.94 13.10Q64.08 13.03 64.25 12.99L64.25 12.99L64.25 12.99Q64.41 12.95 64.58 12.83L64.58 12.83L64.58 12.83Q64.74 12.71 64.76 12.53L64.76 12.53L64.76 12.53Q64.86 12.03 64.86 11.51L64.86 11.51L64.86 11.51Q64.86 11.37 64.87 11.12L64.87 11.12L64.87 11.12Q64.88 10.86 64.88 10.75L64.88 10.75L64.88 10.75Q64.88 10.50 64.89 9.93L64.89 9.93L64.89 9.93Q64.90 9.35 64.90 9.03L64.90 9.03L64.90 9.03Q64.90 8.82 64.74 8.74L64.74 8.74L64.74 8.74Q64.57 8.65 64.02 8.65L64.02 8.65L64.02 8.65Q63.81 8.65 63.06 8.68L63.06 8.68L62.30 8.69L62.30 8.69Q61.68 8.69 60.91 8.67L60.91 8.67L60.91 8.67Q60.14 8.65 59.72 8.65L59.72 8.65L59.72 8.65Q59.51 8.65 59.44 8.74L59.44 8.74L59.44 8.74Q59.37 8.82 59.37 9.17L59.37 9.17L59.37 9.17Q59.37 9.52 59.35 10.08L59.35 10.08L59.35 10.08Q59.32 10.64 59.32 10.89L59.32 10.89L59.32 11.49L59.32 11.49Q59.32 12.10 59.43 12.39L59.43 12.39L59.43 12.39Q59.54 12.68 59.98 12.96L59.98 12.96L59.98 12.96Q60.09 13.03 60.58 13.03L60.58 13.03L60.58 13.03Q60.68 13.03 60.76 13.08L60.76 13.08L60.76 13.08Q60.84 13.13 60.84 13.19L60.84 13.19L60.84 13.19Q60.84 13.44 60.40 13.44L60.40 13.44L60.40 13.44Q59.98 13.44 59.70 13.41L59.70 13.41L59.70 13.41Q59.43 13.38 59.23 13.38L59.23 13.38L59.23 13.38Q58.84 13.38 58.39 13.42L58.39 13.42L58.39 13.42Q57.95 13.45 57.72 13.45L57.72 13.45L57.72 13.45Q57.06 13.45 57.06 13.24L57.06 13.24L57.06 13.24Q57.06 13.12 57.20 13.07L57.20 13.07L57.20 13.07Q57.33 13.02 57.50 13.00L57.50 13.00L57.50 13.00Q57.67 12.98 57.85 12.82L57.85 12.82L57.85 12.82Q58.03 12.66 58.10 12.35L58.10 12.35L58.10 12.35Q58.14 12.11 58.21 10.91L58.21 10.91L58.21 10.91Q58.28 9.70 58.28 8.61L58.28 8.61L58.28 7.81L58.28 7.81Q58.28 7.63 58.29 7.12L58.29 7.12L58.29 7.12Q58.30 6.61 58.30 6.30L58.30 6.30L58.30 6.30Q58.30 5.24 58.21 4.63L58.21 4.63L58.21 4.63Q58.17 4.28 57.84 4.09L57.84 4.09L57.84 4.09Q57.51 3.89 57.16 3.89L57.16 3.89L57.16 3.89Q57.02 3.89 56.95 3.80L56.95 3.80L56.95 3.80Q56.87 3.71 56.87 3.65ZM74.94 3.65L74.94 3.65L74.94 3.65Q74.94 3.46 75.33 3.46L75.33 3.46L75.33 3.46Q75.39 3.46 75.52 3.47L75.52 3.47L75.52 3.47Q75.64 3.49 75.71 3.49L75.71 3.49L75.71 3.49Q75.75 3.49 77.03 3.52L77.03 3.52L77.03 3.52Q78.30 3.56 79.13 3.56L79.13 3.56L79.13 3.56Q79.42 3.56 80.58 3.53L80.58 3.53L80.58 3.53Q81.73 3.50 81.93 3.50L81.93 3.50L81.93 3.50Q82.19 3.50 82.19 3.82L82.19 3.82L82.19 3.82Q82.19 3.91 82.11 4.38L82.11 4.38L82.11 4.38Q82.03 4.84 82.03 5.25L82.03 5.25L82.03 5.25Q82.03 5.38 81.96 5.47L81.96 5.47L81.96 5.47Q81.89 5.56 81.80 5.56L81.80 5.56L81.80 5.56Q81.59 5.56 81.59 5.26L81.59 5.26L81.59 5.26Q81.59 4.89 81.35 4.58L81.35 4.58L81.35 4.58Q81.12 4.27 80.77 4.26L80.77 4.26L80.77 4.26Q79.51 4.16 78.83 4.16L78.83 4.16L78.47 4.16L78.47 4.16Q77.74 4.16 77.62 4.26L77.62 4.26L77.62 4.26Q77.50 4.37 77.48 5.01L77.48 5.01L77.48 5.01Q77.42 6.02 77.42 7.35L77.42 7.35L77.42 7.35Q77.42 8.05 77.69 8.06L77.69 8.06L78.04 8.06L78.62 8.06L79.06 8.06L79.06 8.06Q79.90 8.06 80.18 8.01L80.18 8.01L80.18 8.01Q80.46 7.95 80.68 7.80L80.68 7.80L80.68 7.80Q80.95 7.62 81.00 7.28L81.00 7.28L81.00 7.28Q81.05 7.04 81.20 7.04L81.20 7.04L81.20 7.04Q81.33 7.04 81.35 7.08L81.35 7.08L81.35 7.08Q81.38 7.13 81.38 7.27L81.38 7.27L81.38 7.27Q81.38 7.36 81.33 7.91L81.33 7.91L81.33 7.91Q81.27 8.46 81.27 8.74L81.27 8.74L81.27 8.74Q81.27 9.00 81.29 9.24L81.29 9.24L81.29 9.24Q81.31 9.48 81.31 9.59L81.31 9.59L81.31 9.59Q81.31 9.94 81.21 9.94L81.21 9.94L81.21 9.94Q81.00 9.94 80.91 9.60L80.91 9.60L80.91 9.60Q80.71 9.02 80.56 8.92L80.56 8.92L80.56 8.92Q80.26 8.72 79.21 8.72L79.21 8.72L79.21 8.72Q78.79 8.72 78.53 8.72L78.53 8.72L78.53 8.72Q78.27 8.72 78.20 8.71L78.20 8.71L78.20 8.71Q78.12 8.71 78.07 8.71L78.07 8.71L78.07 8.71Q78.02 8.71 77.98 8.71L77.98 8.71L77.98 8.71Q77.41 8.71 77.41 8.97L77.41 8.97L77.41 8.97Q77.41 9.38 77.39 9.99L77.39 9.99L77.39 9.99Q77.38 10.60 77.38 10.99L77.38 10.99L77.38 11.55L77.38 11.55Q77.38 12.56 77.71 12.66L77.71 12.66L77.71 12.66Q78.06 12.77 78.32 12.77L78.32 12.77L78.32 12.77Q79.37 12.77 80.16 12.67L80.16 12.67L80.16 12.67Q80.95 12.57 81.35 12.42L81.35 12.42L81.35 12.42Q81.75 12.28 82.01 12.10L82.01 12.10L82.01 12.10Q82.28 11.93 82.36 11.78L82.36 11.78L82.36 11.78Q82.43 11.63 82.51 11.54L82.51 11.54L82.51 11.54Q82.59 11.44 82.67 11.44L82.67 11.44L82.67 11.44Q82.84 11.44 82.84 11.68L82.84 11.68L82.84 11.68Q82.84 12.28 82.24 12.89L82.24 12.89L82.24 12.89Q81.63 13.51 81.19 13.51L81.19 13.51L81.19 13.51Q80.18 13.51 78.91 13.44L78.91 13.44L78.91 13.44Q77.64 13.37 77.34 13.37L77.34 13.37L77.34 13.37Q76.94 13.37 76.36 13.43L76.36 13.43L76.36 13.43Q75.77 13.50 75.43 13.50L75.43 13.50L75.43 13.50Q75.14 13.50 75.14 13.36L75.14 13.36L75.14 13.36Q75.14 13.23 75.14 13.19L75.14 13.19L75.14 13.19Q75.14 13.15 75.18 13.12L75.18 13.12L75.18 13.12Q75.22 13.09 75.27 13.08L75.27 13.08L75.27 13.08Q75.32 13.08 75.45 13.03L75.45 13.03L75.45 13.03Q75.59 12.99 75.74 12.92L75.74 12.92L75.74 12.92Q76.08 12.75 76.18 12.26L76.18 12.26L76.18 12.26Q76.29 11.77 76.29 10.21L76.29 10.21L76.29 8.47L76.29 8.47Q76.29 8.09 76.31 7.29L76.31 7.29L76.31 7.29Q76.33 6.50 76.33 6.05L76.33 6.05L76.33 6.05Q76.33 5.67 76.30 4.77L76.30 4.77L76.30 4.77Q76.29 4.37 75.95 4.14L75.95 4.14L75.95 4.14Q75.61 3.92 75.17 3.91L75.17 3.91L75.17 3.91Q74.94 3.91 74.94 3.65ZM100.38 3.71L100.38 3.71L100.38 3.71Q100.38 3.46 100.76 3.46L100.76 3.46L100.76 3.46Q100.81 3.46 100.94 3.47L100.94 3.47L100.94 3.47Q101.07 3.49 101.14 3.49L101.14 3.49L101.14 3.49Q101.28 3.49 101.66 3.51L101.66 3.51L101.66 3.51Q102.05 3.54 102.35 3.54L102.35 3.54L102.35 3.54Q102.79 3.54 103.28 3.51L103.28 3.51L103.28 3.51Q103.77 3.49 103.82 3.49L103.82 3.49L103.82 3.49Q104.06 3.49 104.06 3.63L104.06 3.63L104.06 3.63Q104.06 3.82 103.89 3.88L103.89 3.88L103.89 3.88Q103.73 3.95 103.52 3.97L103.52 3.97L103.52 3.97Q103.32 3.99 103.13 4.28L103.13 4.28L103.13 4.28Q102.94 4.56 102.91 5.14L102.91 5.14L102.91 5.14Q102.89 5.68 102.84 8.19L102.84 8.19L102.84 8.19Q102.80 10.70 102.80 10.99L102.80 10.99L102.80 11.55L102.80 11.55Q102.80 12.56 103.14 12.66L103.14 12.66L103.14 12.66Q103.49 12.77 103.74 12.77L103.74 12.77L103.74 12.77Q104.79 12.77 105.58 12.67L105.58 12.67L105.58 12.67Q106.37 12.57 106.77 12.42L106.77 12.42L106.77 12.42Q107.17 12.28 107.44 12.10L107.44 12.10L107.44 12.10Q107.70 11.93 107.78 11.78L107.78 11.78L107.78 11.78Q107.86 11.63 107.93 11.54L107.93 11.54L107.93 11.54Q108.01 11.44 108.09 11.44L108.09 11.44L108.09 11.44Q108.26 11.44 108.26 11.68L108.26 11.68L108.26 11.68Q108.26 12.28 107.66 12.89L107.66 12.89L107.66 12.89Q107.06 13.51 106.61 13.51L106.61 13.51L106.61 13.51Q105.60 13.51 104.34 13.44L104.34 13.44L104.34 13.44Q103.07 13.37 102.76 13.37L102.76 13.37L102.76 13.37Q102.37 13.37 101.86 13.43L101.86 13.43L101.86 13.43Q101.35 13.48 101.01 13.48L101.01 13.48L101.01 13.48Q100.60 13.48 100.60 13.31L100.60 13.31L100.60 13.31Q100.60 13.22 100.68 13.15L100.68 13.15L100.68 13.15Q100.76 13.09 100.83 13.09L100.83 13.09L100.83 13.09Q101.04 13.09 101.23 12.95L101.23 12.95L101.23 12.95Q101.49 12.75 101.60 12.23L101.60 12.23L101.60 12.23Q101.71 11.70 101.71 10.21L101.71 10.21L101.71 8.47L101.71 8.47Q101.71 8.09 101.73 7.29L101.73 7.29L101.73 7.29Q101.75 6.50 101.75 6.05L101.75 6.05L101.75 6.05Q101.75 5.67 101.72 4.77L101.72 4.77L101.72 4.77Q101.71 4.37 101.37 4.14L101.37 4.14L101.37 4.14Q101.04 3.92 100.59 3.91L100.59 3.91L100.59 3.91Q100.45 3.91 100.42 3.86L100.42 3.86L100.42 3.86Q100.38 3.81 100.38 3.71ZM115.82 3.65L115.82 3.65L115.82 3.65Q115.82 3.46 116.21 3.46L116.21 3.46L116.21 3.46Q116.27 3.46 116.40 3.47L116.40 3.47L116.40 3.47Q116.52 3.49 116.59 3.49L116.59 3.49L116.59 3.49Q116.63 3.49 117.91 3.52L117.91 3.52L117.91 3.52Q119.18 3.56 120.01 3.56L120.01 3.56L120.01 3.56Q120.30 3.56 121.46 3.53L121.46 3.53L121.46 3.53Q122.61 3.50 122.81 3.50L122.81 3.50L122.81 3.50Q123.07 3.50 123.07 3.82L123.07 3.82L123.07 3.82Q123.07 3.91 122.99 4.38L122.99 4.38L122.99 4.38Q122.91 4.84 122.91 5.25L122.91 5.25L122.91 5.25Q122.91 5.38 122.84 5.47L122.84 5.47L122.84 5.47Q122.77 5.56 122.68 5.56L122.68 5.56L122.68 5.56Q122.47 5.56 122.47 5.26L122.47 5.26L122.47 5.26Q122.47 4.89 122.23 4.58L122.23 4.58L122.23 4.58Q122.00 4.27 121.65 4.26L121.65 4.26L121.65 4.26Q120.39 4.16 119.71 4.16L119.71 4.16L119.35 4.16L119.35 4.16Q118.62 4.16 118.50 4.26L118.50 4.26L118.50 4.26Q118.38 4.37 118.36 5.01L118.36 5.01L118.36 5.01Q118.30 6.02 118.30 7.35L118.30 7.35L118.30 7.35Q118.30 8.05 118.57 8.06L118.57 8.06L118.92 8.06L119.50 8.06L119.94 8.06L119.94 8.06Q120.78 8.06 121.06 8.01L121.06 8.01L121.06 8.01Q121.34 7.95 121.56 7.80L121.56 7.80L121.56 7.80Q121.83 7.62 121.88 7.28L121.88 7.28L121.88 7.28Q121.93 7.04 122.08 7.04L122.08 7.04L122.08 7.04Q122.21 7.04 122.23 7.08L122.23 7.08L122.23 7.08Q122.26 7.13 122.26 7.27L122.26 7.27L122.26 7.27Q122.26 7.36 122.21 7.91L122.21 7.91L122.21 7.91Q122.15 8.46 122.15 8.74L122.15 8.74L122.15 8.74Q122.15 9.00 122.17 9.24L122.17 9.24L122.17 9.24Q122.19 9.48 122.19 9.59L122.19 9.59L122.19 9.59Q122.19 9.94 122.09 9.94L122.09 9.94L122.09 9.94Q121.88 9.94 121.79 9.60L121.79 9.60L121.79 9.60Q121.59 9.02 121.44 8.92L121.44 8.92L121.44 8.92Q121.14 8.72 120.09 8.72L120.09 8.72L120.09 8.72Q119.67 8.72 119.41 8.72L119.41 8.72L119.41 8.72Q119.15 8.72 119.08 8.71L119.08 8.71L119.08 8.71Q119 8.71 118.95 8.71L118.95 8.71L118.95 8.71Q118.90 8.71 118.86 8.71L118.86 8.71L118.86 8.71Q118.29 8.71 118.29 8.97L118.29 8.97L118.29 8.97Q118.29 9.38 118.27 9.99L118.27 9.99L118.27 9.99Q118.26 10.60 118.26 10.99L118.26 10.99L118.26 11.55L118.26 11.55Q118.26 12.56 118.59 12.66L118.59 12.66L118.59 12.66Q118.94 12.77 119.20 12.77L119.20 12.77L119.20 12.77Q120.25 12.77 121.04 12.67L121.04 12.67L121.04 12.67Q121.83 12.57 122.23 12.42L122.23 12.42L122.23 12.42Q122.63 12.28 122.89 12.10L122.89 12.10L122.89 12.10Q123.16 11.93 123.23 11.78L123.23 11.78L123.23 11.78Q123.31 11.63 123.39 11.54L123.39 11.54L123.39 11.54Q123.47 11.44 123.55 11.44L123.55 11.44L123.55 11.44Q123.72 11.44 123.72 11.68L123.72 11.68L123.72 11.68Q123.72 12.28 123.12 12.89L123.12 12.89L123.12 12.89Q122.51 13.51 122.07 13.51L122.07 13.51L122.07 13.51Q121.06 13.51 119.79 13.44L119.79 13.44L119.79 13.44Q118.52 13.37 118.22 13.37L118.22 13.37L118.22 13.37Q117.82 13.37 117.24 13.43L117.24 13.43L117.24 13.43Q116.65 13.50 116.31 13.50L116.31 13.50L116.31 13.50Q116.02 13.50 116.02 13.36L116.02 13.36L116.02 13.36Q116.02 13.23 116.02 13.19L116.02 13.19L116.02 13.19Q116.02 13.15 116.06 13.12L116.06 13.12L116.06 13.12Q116.10 13.09 116.15 13.08L116.15 13.08L116.15 13.08Q116.20 13.08 116.33 13.03L116.33 13.03L116.33 13.03Q116.47 12.99 116.62 12.92L116.62 12.92L116.62 12.92Q116.96 12.75 117.06 12.26L117.06 12.26L117.06 12.26Q117.17 11.77 117.17 10.21L117.17 10.21L117.17 8.47L117.17 8.47Q117.17 8.09 117.19 7.29L117.19 7.29L117.19 7.29Q117.21 6.50 117.21 6.05L117.21 6.05L117.21 6.05Q117.21 5.67 117.18 4.77L117.18 4.77L117.18 4.77Q117.17 4.37 116.83 4.14L116.83 4.14L116.83 4.14Q116.49 3.92 116.05 3.91L116.05 3.91L116.05 3.91Q115.82 3.91 115.82 3.65ZM131.28 3.77L131.28 3.77L131.28 3.77Q131.28 3.68 131.38 3.60L131.38 3.60L131.38 3.60Q131.47 3.53 131.63 3.53L131.63 3.53L131.63 3.53Q131.71 3.53 131.91 3.54L131.91 3.54L131.91 3.54Q132.10 3.54 132.16 3.54L132.16 3.54L132.16 3.54Q132.37 3.54 132.55 3.53L132.55 3.53L132.55 3.53Q132.73 3.51 132.85 3.51L132.85 3.51L132.85 3.51Q132.97 3.51 133.14 3.59L133.14 3.59L133.14 3.59Q133.31 3.67 133.34 3.75L133.34 3.75L133.34 3.75Q133.36 3.79 133.49 3.94L133.49 3.94L133.49 3.94Q133.62 4.09 133.83 4.33L133.83 4.33L133.83 4.33Q134.04 4.56 134.20 4.79L134.20 4.79L134.20 4.79Q136.11 7.27 139.30 10.77L139.30 10.77L139.30 10.77Q139.38 10.86 139.50 10.99L139.50 10.99L139.50 10.99Q139.62 11.12 139.67 11.18L139.67 11.18L139.67 11.18Q139.72 11.24 139.78 11.30L139.78 11.30L139.78 11.30Q139.83 11.35 139.87 11.38L139.87 11.38L139.87 11.38Q139.90 11.40 139.93 11.40L139.93 11.40L139.93 11.40Q140.07 11.40 140.07 10.53L140.07 10.53L140.07 8.89L140.07 8.89Q140.07 7.95 140.06 7.31L140.06 7.31L140.06 7.31Q140.06 6.66 140.05 6.38L140.05 6.38L140.05 6.38Q140.04 6.09 140.04 6.02L140.04 6.02L140.04 5.92L140.04 5.92Q140.04 5.45 139.98 5.11L139.98 5.11L139.98 5.11Q139.92 4.77 139.83 4.59L139.83 4.59L139.83 4.59Q139.75 4.41 139.59 4.28L139.59 4.28L139.59 4.28Q139.43 4.16 139.31 4.12L139.31 4.12L139.31 4.12Q139.20 4.09 138.99 4.05L138.99 4.05L138.99 4.05Q138.78 4.00 138.70 3.98L138.70 3.98L138.70 3.98Q138.42 3.89 138.42 3.74L138.42 3.74L138.42 3.74Q138.42 3.53 138.68 3.53L138.68 3.53L138.68 3.53Q138.77 3.53 139.36 3.54L139.36 3.54L139.36 3.54Q139.94 3.54 140.01 3.54L140.01 3.54L140.01 3.54Q140.35 3.54 140.76 3.53L140.76 3.53L140.76 3.53Q141.18 3.51 141.27 3.51L141.27 3.51L141.27 3.51Q141.51 3.51 141.60 3.56L141.60 3.56L141.60 3.56Q141.69 3.61 141.69 3.75L141.69 3.75L141.69 3.75Q141.69 3.81 141.62 3.86L141.62 3.86L141.62 3.86Q141.54 3.91 141.46 3.94L141.46 3.94L141.46 3.94Q141.37 3.98 141.29 4.00L141.29 4.00L141.20 4.03L141.20 4.03Q140.74 4.28 140.74 5.61L140.74 5.61L140.74 6.15L140.74 6.15Q140.74 7.21 140.66 9.83L140.66 9.83L140.66 9.83Q140.59 12.46 140.59 13.08L140.59 13.08L140.59 13.36L140.59 13.36Q140.59 13.68 140.39 13.68L140.39 13.68L140.39 13.68Q140.27 13.68 140.17 13.58L140.17 13.58L140.17 13.58Q135.52 8.19 134.62 7.17L134.62 7.17L134.62 7.17Q133.71 6.16 133.62 6.16L133.62 6.16L133.62 6.16Q133.48 6.16 133.48 7.11L133.48 7.11L133.48 7.11Q133.48 8.44 133.42 9.97L133.42 9.97L133.42 9.97Q133.36 11.51 133.36 11.65L133.36 11.65L133.36 11.65Q133.36 12.28 133.58 12.61L133.58 12.61L133.58 12.61Q133.80 12.94 134.05 12.98L134.05 12.98L134.05 12.98Q134.30 13.02 134.52 13.07L134.52 13.07L134.52 13.07Q134.74 13.12 134.74 13.26L134.74 13.26L134.74 13.26Q134.74 13.41 134.69 13.45L134.69 13.45L134.69 13.45Q134.64 13.50 134.51 13.50L134.51 13.50L134.51 13.50Q134.41 13.50 134.07 13.48L134.07 13.48L134.07 13.48Q133.73 13.47 133.01 13.47L133.01 13.47L133.01 13.47Q132.89 13.47 132.50 13.48L132.50 13.48L132.50 13.48Q132.10 13.50 131.82 13.50L131.82 13.50L131.82 13.50Q131.52 13.50 131.52 13.27L131.52 13.27L131.52 13.27Q131.52 13.15 131.70 13.11L131.70 13.11L131.70 13.11Q131.88 13.08 132.15 12.89L132.15 12.89L132.15 12.89Q132.41 12.71 132.55 12.21L132.55 12.21L132.55 12.21Q132.64 11.89 132.76 9.60L132.76 9.60L132.76 9.60Q132.89 7.32 132.89 6.45L132.89 6.45L132.89 6.45Q132.89 5.25 132.55 4.65L132.55 4.65L132.55 4.65Q132.22 4.06 131.46 3.98L131.46 3.98L131.46 3.98Q131.28 3.96 131.28 3.77ZM150.00 10.82L150.00 10.82L150.00 10.82Q150.00 10.53 150.19 10.53L150.19 10.53L150.19 10.53Q150.37 10.53 150.42 10.67L150.42 10.67L150.42 10.67Q150.56 11.00 150.67 11.25L150.67 11.25L150.67 11.25Q150.79 11.49 151.06 11.85L151.06 11.85L151.06 11.85Q151.33 12.21 151.63 12.44L151.63 12.44L151.63 12.44Q151.94 12.67 152.42 12.84L152.42 12.84L152.42 12.84Q152.91 13.01 153.48 13.01L153.48 13.01L153.48 13.01Q154.53 13.01 155.17 12.45L155.17 12.45L155.17 12.45Q155.81 11.90 155.81 11.00L155.81 11.00L155.81 11.00Q155.81 10.35 155.37 9.90L155.37 9.90L155.37 9.90Q154.94 9.46 154.38 9.27L154.38 9.27L154.38 9.27Q153.82 9.09 152.96 8.77L152.96 8.77L152.96 8.77Q152.10 8.46 151.55 8.13L151.55 8.13L151.55 8.13Q150.28 7.38 150.28 6.08L150.28 6.08L150.28 6.08Q150.28 4.83 151.18 4.08L151.18 4.08L151.18 4.08Q152.08 3.33 153.52 3.33L153.52 3.33L153.52 3.33Q154.06 3.33 154.79 3.56L154.79 3.56L154.79 3.56Q155.53 3.79 155.54 3.79L155.54 3.79L155.54 3.79Q155.58 3.79 155.69 3.74L155.69 3.74L155.69 3.74Q155.81 3.68 155.86 3.68L155.86 3.68L155.86 3.68Q156.04 3.68 156.07 3.79L156.07 3.79L156.07 3.79Q156.37 5.49 156.37 5.70L156.37 5.70L156.37 5.70Q156.37 6.09 156.17 6.09L156.17 6.09L156.17 6.09Q156.04 6.09 155.97 5.89L155.97 5.89L155.97 5.89Q155.81 5.49 155.64 5.24L155.64 5.24L155.64 5.24Q155.48 4.98 155.41 4.91L155.41 4.91L155.41 4.91Q155.34 4.84 155.05 4.58L155.05 4.58L155.05 4.58Q154.29 3.91 153.22 3.91L153.22 3.91L153.22 3.91Q152.35 3.91 151.76 4.33L151.76 4.33L151.76 4.33Q151.17 4.75 151.17 5.46L151.17 5.46L151.17 5.46Q151.17 6.09 151.51 6.50L151.51 6.50L151.51 6.50Q151.86 6.90 152.43 7.13L152.43 7.13L152.43 7.13Q153.01 7.35 153.64 7.55L153.64 7.55L153.64 7.55Q154.27 7.74 154.97 8.09L154.97 8.09L154.97 8.09Q155.68 8.44 156.14 8.93L156.14 8.93L156.14 8.93Q156.70 9.53 156.70 10.43L156.70 10.43L156.70 10.43Q156.70 11.90 155.76 12.76L155.76 12.76L155.76 12.76Q154.83 13.62 153.44 13.62L153.44 13.62L153.44 13.62Q152.47 13.62 151.89 13.52L151.89 13.52L151.89 13.52Q151.30 13.41 150.68 13.09L150.68 13.09L150.68 13.09Q150.50 12.98 150.25 12.00L150.25 12.00L150.25 12.00Q150.00 11.02 150.00 10.82ZM164.79 3.65L164.79 3.65L164.79 3.65Q164.79 3.46 165.19 3.46L165.19 3.46L165.19 3.46Q165.24 3.46 165.37 3.47L165.37 3.47L165.37 3.47Q165.49 3.49 165.56 3.49L165.56 3.49L165.56 3.49Q165.61 3.49 166.88 3.52L166.88 3.52L166.88 3.52Q168.15 3.56 168.98 3.56L168.98 3.56L168.98 3.56Q169.27 3.56 170.43 3.53L170.43 3.53L170.43 3.53Q171.58 3.50 171.78 3.50L171.78 3.50L171.78 3.50Q172.05 3.50 172.05 3.82L172.05 3.82L172.05 3.82Q172.05 3.91 171.96 4.38L171.96 4.38L171.96 4.38Q171.88 4.84 171.88 5.25L171.88 5.25L171.88 5.25Q171.88 5.38 171.81 5.47L171.81 5.47L171.81 5.47Q171.74 5.56 171.65 5.56L171.65 5.56L171.65 5.56Q171.44 5.56 171.44 5.26L171.44 5.26L171.44 5.26Q171.44 4.89 171.21 4.58L171.21 4.58L171.21 4.58Q170.97 4.27 170.62 4.26L170.62 4.26L170.62 4.26Q169.36 4.16 168.69 4.16L168.69 4.16L168.32 4.16L168.32 4.16Q167.59 4.16 167.47 4.26L167.47 4.26L167.47 4.26Q167.36 4.37 167.33 5.01L167.33 5.01L167.33 5.01Q167.27 6.02 167.27 7.35L167.27 7.35L167.27 7.35Q167.27 8.05 167.54 8.06L167.54 8.06L167.89 8.06L168.48 8.06L168.91 8.06L168.91 8.06Q169.75 8.06 170.03 8.01L170.03 8.01L170.03 8.01Q170.31 7.95 170.53 7.80L170.53 7.80L170.53 7.80Q170.80 7.62 170.86 7.28L170.86 7.28L170.86 7.28Q170.90 7.04 171.05 7.04L171.05 7.04L171.05 7.04Q171.18 7.04 171.21 7.08L171.21 7.08L171.21 7.08Q171.23 7.13 171.23 7.27L171.23 7.27L171.23 7.27Q171.23 7.36 171.18 7.91L171.18 7.91L171.18 7.91Q171.12 8.46 171.12 8.74L171.12 8.74L171.12 8.74Q171.12 9.00 171.14 9.24L171.14 9.24L171.14 9.24Q171.16 9.48 171.16 9.59L171.16 9.59L171.16 9.59Q171.16 9.94 171.07 9.94L171.07 9.94L171.07 9.94Q170.86 9.94 170.76 9.60L170.76 9.60L170.76 9.60Q170.56 9.02 170.41 8.92L170.41 8.92L170.41 8.92Q170.11 8.72 169.06 8.72L169.06 8.72L169.06 8.72Q168.64 8.72 168.38 8.72L168.38 8.72L168.38 8.72Q168.13 8.72 168.05 8.71L168.05 8.71L168.05 8.71Q167.97 8.71 167.92 8.71L167.92 8.71L167.92 8.71Q167.87 8.71 167.83 8.71L167.83 8.71L167.83 8.71Q167.26 8.71 167.26 8.97L167.26 8.97L167.26 8.97Q167.26 9.38 167.24 9.99L167.24 9.99L167.24 9.99Q167.23 10.60 167.23 10.99L167.23 10.99L167.23 11.55L167.23 11.55Q167.23 12.56 167.57 12.66L167.57 12.66L167.57 12.66Q167.92 12.77 168.17 12.77L168.17 12.77L168.17 12.77Q169.22 12.77 170.01 12.67L170.01 12.67L170.01 12.67Q170.80 12.57 171.20 12.42L171.20 12.42L171.20 12.42Q171.60 12.28 171.86 12.10L171.86 12.10L171.86 12.10Q172.13 11.93 172.21 11.78L172.21 11.78L172.21 11.78Q172.28 11.63 172.36 11.54L172.36 11.54L172.36 11.54Q172.44 11.44 172.52 11.44L172.52 11.44L172.52 11.44Q172.69 11.44 172.69 11.68L172.69 11.68L172.69 11.68Q172.69 12.28 172.09 12.89L172.09 12.89L172.09 12.89Q171.49 13.51 171.04 13.51L171.04 13.51L171.04 13.51Q170.03 13.51 168.76 13.44L168.76 13.44L168.76 13.44Q167.50 13.37 167.19 13.37L167.19 13.37L167.19 13.37Q166.80 13.37 166.21 13.43L166.21 13.43L166.21 13.43Q165.62 13.50 165.28 13.50L165.28 13.50L165.28 13.50Q164.99 13.50 164.99 13.36L164.99 13.36L164.99 13.36Q164.99 13.23 164.99 13.19L164.99 13.19L164.99 13.19Q164.99 13.15 165.03 13.12L165.03 13.12L165.03 13.12Q165.07 13.09 165.12 13.08L165.12 13.08L165.12 13.08Q165.17 13.08 165.30 13.03L165.30 13.03L165.30 13.03Q165.44 12.99 165.59 12.92L165.59 12.92L165.59 12.92Q165.93 12.75 166.03 12.26L166.03 12.26L166.03 12.26Q166.14 11.77 166.14 10.21L166.14 10.21L166.14 8.47L166.14 8.47Q166.14 8.09 166.16 7.29L166.16 7.29L166.16 7.29Q166.18 6.50 166.18 6.05L166.18 6.05L166.18 6.05Q166.18 5.67 166.15 4.77L166.15 4.77L166.15 4.77Q166.14 4.37 165.80 4.14L165.80 4.14L165.80 4.14Q165.47 3.92 165.02 3.91L165.02 3.91L165.02 3.91Q164.79 3.91 164.79 3.65ZM190.57 8.69L190.57 8.69L190.57 8.69Q190.57 6.34 191.98 4.84L191.98 4.84L191.98 4.84Q193.40 3.33 195.99 3.33L195.99 3.33L195.99 3.33Q197.19 3.33 198.16 3.68L198.16 3.68L198.16 3.68Q199.12 4.03 199.68 4.54L199.68 4.54L199.68 4.54Q200.24 5.05 200.62 5.71L200.62 5.71L200.62 5.71Q201.00 6.37 201.14 6.92L201.14 6.92L201.14 6.92Q201.28 7.48 201.28 7.95L201.28 7.95L201.28 7.95Q201.28 9.86 200.54 11.16L200.54 11.16L200.54 11.16Q199.79 12.47 198.58 13.07L198.58 13.07L198.58 13.07Q197.37 13.66 195.79 13.66L195.79 13.66L195.79 13.66Q194.12 13.66 192.91 12.94L192.91 12.94L192.91 12.94Q191.70 12.21 191.13 11.10L191.13 11.10L191.13 11.10Q190.57 10.00 190.57 8.69ZM191.80 7.98L191.80 7.98L191.80 7.98Q191.80 8.54 191.95 9.19L191.95 9.19L191.95 9.19Q192.11 9.84 192.46 10.54L192.46 10.54L192.46 10.54Q192.81 11.23 193.30 11.78L193.30 11.78L193.30 11.78Q193.80 12.33 194.56 12.69L194.56 12.69L194.56 12.69Q195.33 13.05 196.24 13.05L196.24 13.05L196.24 13.05Q196.71 13.05 197.24 12.90L197.24 12.90L197.24 12.90Q197.76 12.75 198.28 12.45L198.28 12.45L198.28 12.45Q198.80 12.14 199.21 11.70L199.21 11.70L199.21 11.70Q199.61 11.26 199.87 10.62L199.87 10.62L199.87 10.62Q200.13 9.98 200.13 9.24L200.13 9.24L200.13 9.24Q200.13 6.71 198.80 5.30L198.80 5.30L198.80 5.30Q197.47 3.89 195.51 3.89L195.51 3.89L195.51 3.89Q193.97 3.89 192.88 4.93L192.88 4.93L192.88 4.93Q191.80 5.96 191.80 7.98ZM209.17 3.68L209.17 3.68L209.17 3.68Q209.17 3.64 209.19 3.60L209.19 3.60L209.19 3.60Q209.22 3.56 209.31 3.50L209.31 3.50L209.31 3.50Q209.40 3.44 209.54 3.44L209.54 3.44L209.92 3.44L209.92 3.44Q210.25 3.44 211.00 3.49L211.00 3.49L211.00 3.49Q211.75 3.53 212.95 3.53L212.95 3.53L212.95 3.53Q213.95 3.53 214.72 3.49L214.72 3.49L214.72 3.49Q215.49 3.46 216.13 3.46L216.13 3.46L216.13 3.46Q216.37 3.46 216.37 3.79L216.37 3.79L216.37 3.79Q216.37 3.92 216.34 4.11L216.34 4.11L216.34 4.11Q216.31 4.30 216.26 4.61L216.26 4.61L216.26 4.61Q216.20 4.93 216.17 5.22L216.17 5.22L216.17 5.22Q216.15 5.50 215.96 5.50L215.96 5.50L215.96 5.50Q215.77 5.50 215.77 5.22L215.77 5.22L215.77 5.22Q215.77 4.30 215.12 4.26L215.12 4.26L215.12 4.26Q213.01 4.09 212.60 4.09L212.60 4.09L212.60 4.09Q211.97 4.09 211.83 4.24L211.83 4.24L211.83 4.24Q211.68 4.40 211.67 4.87L211.67 4.87L211.67 4.87Q211.67 4.94 211.67 4.98L211.67 4.98L211.67 4.98Q211.62 5.74 211.62 7.32L211.62 7.32L211.62 7.32Q211.62 8.01 211.88 8.02L211.88 8.02L211.88 8.02Q211.95 8.02 212.06 8.03L212.06 8.03L212.06 8.03Q212.18 8.04 212.23 8.04L212.23 8.04L212.23 8.04Q212.32 8.04 212.52 8.03L212.52 8.03L212.52 8.03Q212.72 8.02 212.83 8.02L212.83 8.02L213.26 8.02L213.26 8.02Q214.10 8.02 214.37 7.97L214.37 7.97L214.37 7.97Q214.65 7.92 214.87 7.77L214.87 7.77L214.87 7.77Q215.00 7.69 215.07 7.57L215.07 7.57L215.07 7.57Q215.14 7.46 215.17 7.31L215.17 7.31L215.17 7.31Q215.19 7.15 215.24 7.08L215.24 7.08L215.24 7.08Q215.28 7.01 215.40 7.01L215.40 7.01L215.40 7.01Q215.53 7.01 215.56 7.06L215.56 7.06L215.56 7.06Q215.59 7.10 215.59 7.24L215.59 7.24L215.59 7.24Q215.59 7.34 215.52 7.73L215.52 7.73L215.52 7.73Q215.46 8.12 215.46 8.40L215.46 8.40L215.46 8.40Q215.46 8.67 215.51 9.05L215.51 9.05L215.51 9.05Q215.56 9.44 215.56 9.55L215.56 9.55L215.56 9.55Q215.56 9.77 215.51 9.83L215.51 9.83L215.51 9.83Q215.46 9.90 215.36 9.90L215.36 9.90L215.36 9.90Q215.12 9.90 215.07 9.55L215.07 9.55L215.07 9.55Q215.07 9.52 215.05 9.42L215.05 9.42L215.05 9.42Q215.04 9.32 215.03 9.28L215.03 9.28L215.03 9.28Q215.03 9.24 215.00 9.16L215.00 9.16L215.00 9.16Q214.97 9.09 214.94 9.04L214.94 9.04L214.94 9.04Q214.91 9.00 214.87 8.95L214.87 8.95L214.87 8.95Q214.83 8.90 214.76 8.88L214.76 8.88L214.76 8.88Q214.56 8.79 214.06 8.74L214.06 8.74L214.06 8.74Q213.56 8.68 213.40 8.68L213.40 8.68L212.18 8.68L212.18 8.68Q211.61 8.68 211.61 8.95L211.61 8.95L211.61 8.95Q211.61 9.35 211.60 9.96L211.60 9.96L211.60 9.96Q211.58 10.57 211.58 10.96L211.58 10.96L211.58 10.96Q211.58 11.06 211.57 11.25L211.57 11.25L211.57 11.25Q211.57 11.44 211.57 11.52L211.57 11.52L211.57 11.52Q211.57 11.80 211.62 12.08L211.62 12.08L211.62 12.08Q211.68 12.36 211.95 12.67L211.95 12.67L211.95 12.67Q212.23 12.98 212.69 12.98L212.69 12.98L212.69 12.98Q213.11 12.98 213.11 13.23L213.11 13.23L213.11 13.23Q213.11 13.27 213.08 13.33L213.08 13.33L213.08 13.33Q213.05 13.38 212.95 13.44L212.95 13.44L212.95 13.44Q212.84 13.50 212.67 13.50L212.67 13.50L212.67 13.50Q212.45 13.50 211.97 13.44L211.97 13.44L211.97 13.44Q211.48 13.38 211.32 13.38L211.32 13.38L211.32 13.38Q210.92 13.38 210.44 13.43L210.44 13.43L210.44 13.43Q209.96 13.47 209.62 13.47L209.62 13.47L209.62 13.47Q209.34 13.47 209.34 13.31L209.34 13.31L209.34 13.31Q209.34 13.13 209.40 13.09L209.40 13.09L209.40 13.09Q209.47 13.05 209.94 12.88L209.94 12.88L209.94 12.88Q210.31 12.75 210.39 12.13L210.39 12.13L210.39 12.13Q210.48 11.51 210.49 9.60L210.49 9.60L210.49 9.60Q210.49 8.86 210.49 8.44L210.49 8.44L210.49 8.44Q210.49 8.06 210.51 7.26L210.51 7.26L210.51 7.26Q210.53 6.45 210.53 6.01L210.53 6.01L210.53 5.19L210.53 5.19Q210.53 4.27 209.87 3.96L209.87 3.96L209.87 3.96Q209.78 3.92 209.64 3.90L209.64 3.90L209.64 3.90Q209.50 3.88 209.40 3.88L209.40 3.88L209.40 3.88Q209.31 3.88 209.24 3.83L209.24 3.83L209.24 3.83Q209.17 3.78 209.17 3.68ZM233.91 3.71L233.91 3.71L233.91 3.71Q233.91 3.50 234.16 3.50L234.16 3.50L234.16 3.50Q234.25 3.50 234.55 3.53L234.55 3.53L234.55 3.53Q234.85 3.56 234.91 3.56L234.91 3.56L234.91 3.56Q235.12 3.56 235.48 3.54L235.48 3.54L235.48 3.54Q235.84 3.53 235.96 3.53L235.96 3.53L235.96 3.53Q236.22 3.53 236.29 3.72L236.29 3.72L236.29 3.72Q236.46 4.09 236.89 5.03L236.89 5.03L236.89 5.03Q237.33 5.98 237.59 6.54L237.59 6.54L237.59 6.54Q237.85 7.10 238.25 7.97L238.25 7.97L238.25 7.97Q238.66 8.83 238.91 9.37L238.91 9.37L238.91 9.37Q239.16 9.91 239.43 10.46L239.43 10.46L239.43 10.46Q239.71 11.00 239.85 11.26L239.85 11.26L239.85 11.26Q240.00 11.52 240.04 11.52L240.04 11.52L240.04 11.52Q240.09 11.52 240.13 11.47L240.13 11.47L240.13 11.47Q240.18 11.42 240.23 11.34L240.23 11.34L240.23 11.34Q240.28 11.26 240.32 11.17L240.32 11.17L240.32 11.17Q240.35 11.09 240.41 10.96L240.41 10.96L240.41 10.96Q240.48 10.82 240.51 10.75L240.51 10.75L242.31 7.03L242.31 7.03Q242.62 6.40 242.86 5.89L242.86 5.89L242.86 5.89Q243.10 5.39 243.24 5.08L243.24 5.08L243.24 5.08Q243.38 4.77 243.47 4.55L243.47 4.55L243.47 4.55Q243.57 4.33 243.62 4.21L243.62 4.21L243.62 4.21Q243.67 4.10 243.69 4.04L243.69 4.04L243.69 4.04Q243.71 3.98 243.73 3.94L243.73 3.94L243.73 3.94Q243.74 3.91 243.75 3.88L243.75 3.88L243.75 3.88Q243.77 3.85 243.80 3.75L243.80 3.75L243.80 3.75Q243.84 3.65 243.87 3.62L243.87 3.62L243.87 3.62Q243.91 3.58 244.01 3.54L244.01 3.54L244.01 3.54Q244.12 3.50 244.29 3.50L244.29 3.50L244.29 3.50Q244.55 3.50 244.78 3.51L244.78 3.51L244.78 3.51Q245.01 3.53 245.49 3.53L245.49 3.53L245.49 3.53Q245.73 3.53 245.73 3.71L245.73 3.71L245.73 3.71Q245.73 3.85 245.64 3.91L245.64 3.91L245.64 3.91Q245.55 3.98 245.27 4.02L245.27 4.02L245.27 4.02Q244.92 4.06 244.78 4.37L244.78 4.37L244.78 4.37Q244.64 4.68 244.64 5.54L244.64 5.54L244.64 5.54Q244.64 7.43 244.72 8.97L244.72 8.97L244.72 8.97Q244.80 10.50 244.80 10.89L244.80 10.89L244.80 10.89Q244.80 12.29 245.03 12.68L245.03 12.68L245.03 12.68Q245.25 13.06 245.97 13.06L245.97 13.06L245.97 13.06Q246.06 13.06 246.14 13.13L246.14 13.13L246.14 13.13Q246.22 13.20 246.22 13.26L246.22 13.26L246.22 13.26Q246.22 13.34 246.20 13.38L246.20 13.38L246.20 13.38Q246.19 13.43 246.15 13.45L246.15 13.45L246.15 13.45Q246.11 13.48 246.06 13.48L246.06 13.48L246.06 13.48Q246.02 13.48 245.91 13.48L245.91 13.48L245.91 13.48Q245.49 13.48 245.08 13.45L245.08 13.45L245.08 13.45Q244.68 13.43 244.48 13.43L244.48 13.43L244.48 13.43Q244.09 13.43 243.67 13.46L243.67 13.46L243.67 13.46Q243.25 13.50 243.03 13.50L243.03 13.50L243.03 13.50Q242.77 13.50 242.77 13.30L242.77 13.30L242.77 13.30Q242.77 13.17 242.89 13.12L242.89 13.12L242.89 13.12Q243.00 13.06 243.14 13.05L243.14 13.05L243.14 13.05Q243.29 13.03 243.45 12.87L243.45 12.87L243.45 12.87Q243.61 12.71 243.68 12.39L243.68 12.39L243.68 12.39Q243.74 12.11 243.74 11.49L243.74 11.49L243.74 11.49Q243.74 11.05 243.72 10.42L243.72 10.42L243.72 10.42Q243.70 9.79 243.67 9.19L243.67 9.19L243.67 9.19Q243.64 8.60 243.61 8.07L243.61 8.07L243.61 8.07Q243.59 7.55 243.57 7.21L243.57 7.21L243.54 6.87L243.54 6.87Q243.54 6.27 243.42 6.27L243.42 6.27L243.42 6.27Q243.40 6.27 243.38 6.29L243.38 6.29L243.38 6.29Q243.35 6.30 243.33 6.33L243.33 6.33L243.33 6.33Q243.31 6.36 243.28 6.38L243.28 6.38L243.28 6.38Q243.25 6.41 243.22 6.47L243.22 6.47L243.22 6.47Q243.19 6.54 243.17 6.58L243.17 6.58L243.17 6.58Q243.14 6.62 243.10 6.70L243.10 6.70L243.10 6.70Q243.05 6.78 243.03 6.83L243.03 6.83L243.03 6.83Q243.00 6.89 242.95 6.99L242.95 6.99L242.95 6.99Q242.90 7.08 242.87 7.15L242.87 7.15L240.93 11.09L240.93 11.09Q240.59 11.77 240.21 12.56L240.21 12.56L240.21 12.56Q239.96 13.09 239.90 13.18L239.90 13.18L239.90 13.18Q239.85 13.27 239.76 13.27L239.76 13.27L239.76 13.27Q239.64 13.27 239.55 13.15L239.55 13.15L239.55 13.15Q239.47 13.03 239.30 12.63L239.30 12.63L239.30 12.63Q239.13 12.22 239.01 11.96L239.01 11.96L239.01 11.96Q236.45 6.75 236.38 6.65L236.38 6.65L236.38 6.65Q236.33 6.59 236.29 6.59L236.29 6.59L236.29 6.59Q236.18 6.59 236.18 7.15L236.18 7.15L236.18 7.15Q236.17 8.25 236.11 9.31L236.11 9.31L236.11 9.31Q236.05 10.37 236.05 10.85L236.05 10.85L236.05 11.48L236.05 11.48Q236.05 11.84 236.07 12.04L236.07 12.04L236.07 12.04Q236.10 12.24 236.19 12.49L236.19 12.49L236.19 12.49Q236.28 12.75 236.52 12.89L236.52 12.89L236.52 12.89Q236.75 13.03 237.13 13.08L237.13 13.08L237.13 13.08Q237.20 13.08 237.26 13.13L237.26 13.13L237.26 13.13Q237.33 13.17 237.33 13.23L237.33 13.23L237.33 13.23Q237.33 13.38 237.29 13.43L237.29 13.43L237.29 13.43Q237.24 13.48 237.12 13.48L237.12 13.48L237.12 13.48Q236.84 13.48 236.28 13.45L236.28 13.45L236.28 13.45Q235.72 13.43 235.66 13.43L235.66 13.43L235.66 13.43Q235.63 13.43 235.26 13.45L235.26 13.45L235.26 13.45Q234.88 13.47 234.51 13.47L234.51 13.47L234.51 13.47Q234.40 13.47 234.35 13.45L234.35 13.45L234.35 13.45Q234.30 13.44 234.26 13.39L234.26 13.39L234.26 13.39Q234.22 13.34 234.22 13.24L234.22 13.24L234.22 13.24Q234.22 13.13 234.35 13.09L234.35 13.09L234.35 13.09Q234.47 13.05 234.63 13.04L234.63 13.04L234.63 13.04Q234.79 13.03 234.99 12.82L234.99 12.82L234.99 12.82Q235.19 12.60 235.28 12.18L235.28 12.18L235.28 12.18Q235.35 11.87 235.45 9.74L235.45 9.74L235.45 9.74Q235.55 7.62 235.55 6.59L235.55 6.59L235.55 6.59Q235.55 5.19 235.28 4.66L235.28 4.66L235.28 4.66Q235.00 4.13 234.09 3.92L234.09 3.92L234.09 3.92Q233.91 3.88 233.91 3.71ZM253.78 3.65L253.78 3.65L253.78 3.65Q253.78 3.46 254.17 3.46L254.17 3.46L254.17 3.46Q254.23 3.46 254.35 3.47L254.35 3.47L254.35 3.47Q254.48 3.49 254.55 3.49L254.55 3.49L254.55 3.49Q254.59 3.49 255.86 3.52L255.86 3.52L255.86 3.52Q257.14 3.56 257.96 3.56L257.96 3.56L257.96 3.56Q258.26 3.56 259.41 3.53L259.41 3.53L259.41 3.53Q260.57 3.50 260.76 3.50L260.76 3.50L260.76 3.50Q261.03 3.50 261.03 3.82L261.03 3.82L261.03 3.82Q261.03 3.91 260.95 4.38L260.95 4.38L260.95 4.38Q260.86 4.84 260.86 5.25L260.86 5.25L260.86 5.25Q260.86 5.38 260.79 5.47L260.79 5.47L260.79 5.47Q260.72 5.56 260.64 5.56L260.64 5.56L260.64 5.56Q260.43 5.56 260.43 5.26L260.43 5.26L260.43 5.26Q260.43 4.89 260.19 4.58L260.19 4.58L260.19 4.58Q259.95 4.27 259.60 4.26L259.60 4.26L259.60 4.26Q258.34 4.16 257.67 4.16L257.67 4.16L257.31 4.16L257.31 4.16Q256.58 4.16 256.46 4.26L256.46 4.26L256.46 4.26Q256.34 4.37 256.31 5.01L256.31 5.01L256.31 5.01Q256.26 6.02 256.26 7.35L256.26 7.35L256.26 7.35Q256.26 8.05 256.52 8.06L256.52 8.06L256.87 8.06L257.46 8.06L257.89 8.06L257.89 8.06Q258.73 8.06 259.01 8.01L259.01 8.01L259.01 8.01Q259.29 7.95 259.52 7.80L259.52 7.80L259.52 7.80Q259.78 7.62 259.84 7.28L259.84 7.28L259.84 7.28Q259.88 7.04 260.04 7.04L260.04 7.04L260.04 7.04Q260.16 7.04 260.19 7.08L260.19 7.08L260.19 7.08Q260.22 7.13 260.22 7.27L260.22 7.27L260.22 7.27Q260.22 7.36 260.16 7.91L260.16 7.91L260.16 7.91Q260.11 8.46 260.11 8.74L260.11 8.74L260.11 8.74Q260.11 9.00 260.13 9.24L260.13 9.24L260.13 9.24Q260.15 9.48 260.15 9.59L260.15 9.59L260.15 9.59Q260.15 9.94 260.05 9.94L260.05 9.94L260.05 9.94Q259.84 9.94 259.74 9.60L259.74 9.60L259.74 9.60Q259.55 9.02 259.39 8.92L259.39 8.92L259.39 8.92Q259.10 8.72 258.05 8.72L258.05 8.72L258.05 8.72Q257.63 8.72 257.37 8.72L257.37 8.72L257.37 8.72Q257.11 8.72 257.03 8.71L257.03 8.71L257.03 8.71Q256.96 8.71 256.91 8.71L256.91 8.71L256.91 8.71Q256.86 8.71 256.82 8.71L256.82 8.71L256.82 8.71Q256.24 8.71 256.24 8.97L256.24 8.97L256.24 8.97Q256.24 9.38 256.23 9.99L256.23 9.99L256.23 9.99Q256.21 10.60 256.21 10.99L256.21 10.99L256.21 11.55L256.21 11.55Q256.21 12.56 256.55 12.66L256.55 12.66L256.55 12.66Q256.90 12.77 257.15 12.77L257.15 12.77L257.15 12.77Q258.20 12.77 258.99 12.67L258.99 12.67L258.99 12.67Q259.78 12.57 260.18 12.42L260.18 12.42L260.18 12.42Q260.58 12.28 260.85 12.10L260.85 12.10L260.85 12.10Q261.11 11.93 261.19 11.78L261.19 11.78L261.19 11.78Q261.27 11.63 261.34 11.54L261.34 11.54L261.34 11.54Q261.42 11.44 261.51 11.44L261.51 11.44L261.51 11.44Q261.67 11.44 261.67 11.68L261.67 11.68L261.67 11.68Q261.67 12.28 261.07 12.89L261.07 12.89L261.07 12.89Q260.47 13.51 260.02 13.51L260.02 13.51L260.02 13.51Q259.01 13.51 257.75 13.44L257.75 13.44L257.75 13.44Q256.48 13.37 256.17 13.37L256.17 13.37L256.17 13.37Q255.78 13.37 255.19 13.43L255.19 13.43L255.19 13.43Q254.60 13.50 254.27 13.50L254.27 13.50L254.27 13.50Q253.97 13.50 253.97 13.36L253.97 13.36L253.97 13.36Q253.97 13.23 253.97 13.19L253.97 13.19L253.97 13.19Q253.97 13.15 254.02 13.12L254.02 13.12L254.02 13.12Q254.06 13.09 254.11 13.08L254.11 13.08L254.11 13.08Q254.16 13.08 254.29 13.03L254.29 13.03L254.29 13.03Q254.42 12.99 254.58 12.92L254.58 12.92L254.58 12.92Q254.91 12.75 255.02 12.26L255.02 12.26L255.02 12.26Q255.12 11.77 255.12 10.21L255.12 10.21L255.12 8.47L255.12 8.47Q255.12 8.09 255.14 7.29L255.14 7.29L255.14 7.29Q255.16 6.50 255.16 6.05L255.16 6.05L255.16 6.05Q255.16 5.67 255.14 4.77L255.14 4.77L255.14 4.77Q255.12 4.37 254.79 4.14L254.79 4.14L254.79 4.14Q254.45 3.92 254.00 3.91L254.00 3.91L254.00 3.91Q253.78 3.91 253.78 3.65ZM269.23 3.70L269.23 3.70L269.23 3.70Q269.23 3.47 269.64 3.47L269.64 3.47L271.96 3.47L271.96 3.47Q272.29 3.47 272.71 3.45L272.71 3.45L272.71 3.45Q273.13 3.43 273.36 3.43L273.36 3.43L273.36 3.43Q274.62 3.43 275.52 4.07L275.52 4.07L275.52 4.07Q276.42 4.70 276.42 5.78L276.42 5.78L276.42 5.78Q276.42 6.50 276.14 7.03L276.14 7.03L276.14 7.03Q275.87 7.57 275.54 7.81L275.54 7.81L275.54 7.81Q275.21 8.05 274.94 8.22L274.94 8.22L274.94 8.22Q274.67 8.40 274.67 8.46L274.67 8.46L274.67 8.46Q274.67 8.62 275.84 10.27L275.84 10.27L275.84 10.27Q277.02 11.91 277.45 12.38L277.45 12.38L277.45 12.38Q277.98 13.03 278.74 13.03L278.74 13.03L278.74 13.03Q278.94 13.03 278.94 13.20L278.94 13.20L278.94 13.20Q278.94 13.41 278.77 13.48L278.77 13.48L278.77 13.48Q278.60 13.55 277.90 13.55L277.90 13.55L277.90 13.55Q277.24 13.55 276.70 13.23L276.70 13.23L276.70 13.23Q276.00 12.82 274.33 10.09L274.33 10.09L274.33 10.09Q274.23 9.94 274.19 9.87L274.19 9.87L274.19 9.87Q273.52 8.78 273.15 8.78L273.15 8.78L272.86 8.78L272.01 8.78L272.01 8.78Q271.84 8.78 271.80 8.92L271.80 8.92L271.80 8.92Q271.77 9.06 271.77 9.77L271.77 9.77L271.77 9.77Q271.77 10.44 271.77 10.88L271.77 10.88L271.77 10.88Q271.77 11.31 271.78 11.43L271.78 11.43L271.78 11.43Q271.78 11.55 271.78 11.63L271.78 11.63L271.78 11.63Q271.78 11.70 271.78 11.75L271.78 11.75L271.78 11.75Q271.78 12.32 272.05 12.63L272.05 12.63L272.05 12.63Q272.31 12.95 272.64 13.00L272.64 13.00L272.64 13.00Q272.97 13.05 273.24 13.11L273.24 13.11L273.24 13.11Q273.50 13.17 273.50 13.31L273.50 13.31L273.50 13.31Q273.50 13.54 273.25 13.54L273.25 13.54L273.25 13.54Q273.24 13.54 272.29 13.49L272.29 13.49L272.29 13.49Q271.33 13.44 271.25 13.44L271.25 13.44L271.25 13.44Q270.84 13.44 270.28 13.47L270.28 13.47L270.28 13.47Q269.72 13.50 269.71 13.50L269.71 13.50L269.71 13.50Q269.42 13.50 269.42 13.27L269.42 13.27L269.42 13.27Q269.42 13.12 269.60 13.05L269.60 13.05L269.60 13.05Q269.78 12.99 270.00 12.96L270.00 12.96L270.00 12.96Q270.23 12.94 270.41 12.66L270.41 12.66L270.41 12.66Q270.59 12.38 270.59 11.86L270.59 11.86L270.59 11.86Q270.59 11.49 270.60 9.90L270.60 9.90L270.60 9.90Q270.61 8.30 270.61 7.45L270.61 7.45L270.61 7.45Q270.61 6.58 270.60 5.86L270.60 5.86L270.60 5.86Q270.59 5.14 270.59 5.08L270.59 5.08L270.59 5.08Q270.59 4.56 270.38 4.29L270.38 4.29L270.38 4.29Q270.17 4.02 269.91 3.98L269.91 3.98L269.91 3.98Q269.65 3.95 269.44 3.89L269.44 3.89L269.44 3.89Q269.23 3.84 269.23 3.70ZM271.77 5.54L271.77 5.94L271.77 5.94Q271.77 7.38 271.78 7.72L271.78 7.72L271.78 7.72Q271.80 8.06 271.88 8.12L271.88 8.12L271.88 8.12Q272.09 8.25 272.48 8.25L272.48 8.25L272.62 8.25L273.03 8.25L273.03 8.25Q274.22 8.25 274.73 7.70L274.73 7.70L274.73 7.70Q275.24 7.15 275.24 6.30L275.24 6.30L275.24 6.30Q275.24 5.43 274.56 4.72L274.56 4.72L274.56 4.72Q273.88 4.00 272.51 4.00L272.51 4.00L272.51 4.00Q271.99 4.00 271.88 4.28L271.88 4.28L271.88 4.28Q271.77 4.55 271.77 5.54L271.77 5.54ZM286.29 3.71L286.29 3.71L286.29 3.71Q286.29 3.46 286.66 3.46L286.66 3.46L286.66 3.46Q286.72 3.46 286.85 3.47L286.85 3.47L286.85 3.47Q286.97 3.49 287.04 3.49L287.04 3.49L287.04 3.49Q287.18 3.49 287.57 3.51L287.57 3.51L287.57 3.51Q287.95 3.54 288.26 3.54L288.26 3.54L288.26 3.54Q288.69 3.54 289.18 3.51L289.18 3.51L289.18 3.51Q289.67 3.49 289.73 3.49L289.73 3.49L289.73 3.49Q289.97 3.49 289.97 3.63L289.97 3.63L289.97 3.63Q289.97 3.82 289.80 3.88L289.80 3.88L289.80 3.88Q289.63 3.95 289.43 3.97L289.43 3.97L289.43 3.97Q289.23 3.99 289.04 4.28L289.04 4.28L289.04 4.28Q288.85 4.56 288.82 5.14L288.82 5.14L288.82 5.14Q288.79 5.68 288.75 8.19L288.75 8.19L288.75 8.19Q288.71 10.70 288.71 10.99L288.71 10.99L288.71 11.55L288.71 11.55Q288.71 12.56 289.04 12.66L289.04 12.66L289.04 12.66Q289.39 12.77 289.65 12.77L289.65 12.77L289.65 12.77Q290.70 12.77 291.49 12.67L291.49 12.67L291.49 12.67Q292.28 12.57 292.68 12.42L292.68 12.42L292.68 12.42Q293.08 12.28 293.34 12.10L293.34 12.10L293.34 12.10Q293.61 11.93 293.69 11.78L293.69 11.78L293.69 11.78Q293.76 11.63 293.84 11.54L293.84 11.54L293.84 11.54Q293.92 11.44 294 11.44L294 11.44L294 11.44Q294.17 11.44 294.17 11.68L294.17 11.68L294.17 11.68Q294.17 12.28 293.57 12.89L293.57 12.89L293.57 12.89Q292.96 13.51 292.52 13.51L292.52 13.51L292.52 13.51Q291.51 13.51 290.24 13.44L290.24 13.44L290.24 13.44Q288.97 13.37 288.67 13.37L288.67 13.37L288.67 13.37Q288.27 13.37 287.76 13.43L287.76 13.43L287.76 13.43Q287.25 13.48 286.92 13.48L286.92 13.48L286.92 13.48Q286.51 13.48 286.51 13.31L286.51 13.31L286.51 13.31Q286.51 13.22 286.59 13.15L286.59 13.15L286.59 13.15Q286.66 13.09 286.73 13.09L286.73 13.09L286.73 13.09Q286.94 13.09 287.14 12.95L287.14 12.95L287.14 12.95Q287.39 12.75 287.50 12.23L287.50 12.23L287.50 12.23Q287.62 11.70 287.62 10.21L287.62 10.21L287.62 8.47L287.62 8.47Q287.62 8.09 287.64 7.29L287.64 7.29L287.64 7.29Q287.66 6.50 287.66 6.05L287.66 6.05L287.66 6.05Q287.66 5.67 287.63 4.77L287.63 4.77L287.63 4.77Q287.62 4.37 287.28 4.14L287.28 4.14L287.28 4.14Q286.94 3.92 286.50 3.91L286.50 3.91L286.50 3.91Q286.36 3.91 286.32 3.86L286.32 3.86L286.32 3.86Q286.29 3.81 286.29 3.71ZM301.73 3.71L301.73 3.71L301.73 3.71Q301.73 3.50 302.12 3.50L302.12 3.50L302.12 3.50Q302.26 3.50 302.76 3.53L302.76 3.53L302.76 3.53Q303.27 3.56 303.70 3.56L303.70 3.56L303.70 3.56Q303.97 3.56 304.21 3.54L304.21 3.54L304.21 3.54Q304.46 3.53 304.93 3.53L304.93 3.53L304.93 3.53Q305.31 3.53 305.31 3.72L305.31 3.72L305.31 3.72Q305.31 3.84 304.67 4.10L304.67 4.10L304.67 4.10Q304.22 4.28 304.22 5.71L304.22 5.71L304.22 5.71Q304.22 7.60 304.20 9.05L304.20 9.05L304.20 9.05Q304.18 10.50 304.18 10.89L304.18 10.89L304.18 10.89Q304.18 12.07 304.53 12.59L304.53 12.59L304.53 12.59Q304.84 13.02 305.20 13.02L305.20 13.02L305.20 13.02Q305.23 13.02 305.34 13.03L305.34 13.03L305.34 13.03Q305.45 13.03 305.48 13.03L305.48 13.03L305.48 13.03Q305.58 13.03 305.68 13.08L305.68 13.08L305.68 13.08Q305.77 13.13 305.77 13.19L305.77 13.19L305.77 13.19Q305.77 13.34 305.70 13.39L305.70 13.39L305.70 13.39Q305.62 13.44 305.42 13.44L305.42 13.44L305.42 13.44Q305.00 13.44 304.65 13.41L304.65 13.41L304.65 13.41Q304.29 13.38 304.09 13.38L304.09 13.38L304.09 13.38Q303.70 13.38 303.24 13.42L303.24 13.42L303.24 13.42Q302.78 13.45 302.55 13.45L302.55 13.45L302.55 13.45Q301.92 13.45 301.92 13.24L301.92 13.24L301.92 13.24Q301.92 13.12 302.06 13.07L302.06 13.07L302.06 13.07Q302.19 13.02 302.36 13.00L302.36 13.00L302.36 13.00Q302.53 12.98 302.71 12.82L302.71 12.82L302.71 12.82Q302.89 12.66 302.96 12.35L302.96 12.35L302.96 12.35Q302.99 12.25 303.05 10.76L303.05 10.76L303.05 10.76Q303.11 9.27 303.11 8.61L303.11 8.61L303.11 7.81L303.11 7.81Q303.11 7.63 303.12 7.12L303.12 7.12L303.12 7.12Q303.13 6.61 303.13 6.30L303.13 6.30L303.13 5.66L303.13 5.66Q303.13 5.04 303.07 4.63L303.07 4.63L303.07 4.63Q303.03 4.30 302.70 4.12L302.70 4.12L302.70 4.12Q302.37 3.93 302.02 3.92L302.02 3.92L302.02 3.92Q301.73 3.91 301.73 3.71ZM313.32 3.77L313.32 3.77L313.32 3.77Q313.32 3.68 313.42 3.60L313.42 3.60L313.42 3.60Q313.52 3.53 313.67 3.53L313.67 3.53L313.67 3.53Q313.75 3.53 313.95 3.54L313.95 3.54L313.95 3.54Q314.15 3.54 314.20 3.54L314.20 3.54L314.20 3.54Q314.41 3.54 314.59 3.53L314.59 3.53L314.59 3.53Q314.78 3.51 314.89 3.51L314.89 3.51L314.89 3.51Q315.01 3.51 315.18 3.59L315.18 3.59L315.18 3.59Q315.35 3.67 315.38 3.75L315.38 3.75L315.38 3.75Q315.41 3.79 315.53 3.94L315.53 3.94L315.53 3.94Q315.66 4.09 315.87 4.33L315.87 4.33L315.87 4.33Q316.08 4.56 316.25 4.79L316.25 4.79L316.25 4.79Q318.15 7.27 321.34 10.77L321.34 10.77L321.34 10.77Q321.43 10.86 321.55 10.99L321.55 10.99L321.55 10.99Q321.66 11.12 321.71 11.18L321.71 11.18L321.71 11.18Q321.76 11.24 321.82 11.30L321.82 11.30L321.82 11.30Q321.87 11.35 321.91 11.38L321.91 11.38L321.91 11.38Q321.94 11.40 321.97 11.40L321.97 11.40L321.97 11.40Q322.11 11.40 322.11 10.53L322.11 10.53L322.11 8.89L322.11 8.89Q322.11 7.95 322.11 7.31L322.11 7.31L322.11 7.31Q322.10 6.66 322.09 6.38L322.09 6.38L322.09 6.38Q322.08 6.09 322.08 6.02L322.08 6.02L322.08 5.92L322.08 5.92Q322.08 5.45 322.02 5.11L322.02 5.11L322.02 5.11Q321.96 4.77 321.87 4.59L321.87 4.59L321.87 4.59Q321.79 4.41 321.63 4.28L321.63 4.28L321.63 4.28Q321.47 4.16 321.36 4.12L321.36 4.12L321.36 4.12Q321.24 4.09 321.03 4.05L321.03 4.05L321.03 4.05Q320.82 4.00 320.74 3.98L320.74 3.98L320.74 3.98Q320.46 3.89 320.46 3.74L320.46 3.74L320.46 3.74Q320.46 3.53 320.73 3.53L320.73 3.53L320.73 3.53Q320.81 3.53 321.40 3.54L321.40 3.54L321.40 3.54Q321.99 3.54 322.06 3.54L322.06 3.54L322.06 3.54Q322.39 3.54 322.81 3.53L322.81 3.53L322.81 3.53Q323.22 3.51 323.32 3.51L323.32 3.51L323.32 3.51Q323.55 3.51 323.65 3.56L323.65 3.56L323.65 3.56Q323.74 3.61 323.74 3.75L323.74 3.75L323.74 3.75Q323.74 3.81 323.66 3.86L323.66 3.86L323.66 3.86Q323.58 3.91 323.50 3.94L323.50 3.94L323.50 3.94Q323.41 3.98 323.33 4.00L323.33 4.00L323.25 4.03L323.25 4.03Q322.78 4.28 322.78 5.61L322.78 5.61L322.78 6.15L322.78 6.15Q322.78 7.21 322.71 9.83L322.71 9.83L322.71 9.83Q322.63 12.46 322.63 13.08L322.63 13.08L322.63 13.36L322.63 13.36Q322.63 13.68 322.43 13.68L322.43 13.68L322.43 13.68Q322.31 13.68 322.21 13.58L322.21 13.58L322.21 13.58Q317.56 8.19 316.66 7.17L316.66 7.17L316.66 7.17Q315.76 6.16 315.66 6.16L315.66 6.16L315.66 6.16Q315.52 6.16 315.52 7.11L315.52 7.11L315.52 7.11Q315.52 8.44 315.46 9.97L315.46 9.97L315.46 9.97Q315.41 11.51 315.41 11.65L315.41 11.65L315.41 11.65Q315.41 12.28 315.62 12.61L315.62 12.61L315.62 12.61Q315.84 12.94 316.09 12.98L316.09 12.98L316.09 12.98Q316.34 13.02 316.56 13.07L316.56 13.07L316.56 13.07Q316.78 13.12 316.78 13.26L316.78 13.26L316.78 13.26Q316.78 13.41 316.73 13.45L316.73 13.45L316.73 13.45Q316.68 13.50 316.55 13.50L316.55 13.50L316.55 13.50Q316.46 13.50 316.11 13.48L316.11 13.48L316.11 13.48Q315.77 13.47 315.06 13.47L315.06 13.47L315.06 13.47Q314.93 13.47 314.54 13.48L314.54 13.48L314.54 13.48Q314.15 13.50 313.87 13.50L313.87 13.50L313.87 13.50Q313.56 13.50 313.56 13.27L313.56 13.27L313.56 13.27Q313.56 13.15 313.74 13.11L313.74 13.11L313.74 13.11Q313.92 13.08 314.19 12.89L314.19 12.89L314.19 12.89Q314.45 12.71 314.59 12.21L314.59 12.21L314.59 12.21Q314.68 11.89 314.80 9.60L314.80 9.60L314.80 9.60Q314.93 7.32 314.93 6.45L314.93 6.45L314.93 6.45Q314.93 5.25 314.59 4.65L314.59 4.65L314.59 4.65Q314.26 4.06 313.50 3.98L313.50 3.98L313.50 3.98Q313.32 3.96 313.32 3.77ZM331.30 13.33L331.30 13.33L331.30 13.33Q331.30 13.13 331.51 13.06L331.51 13.06L331.51 13.06Q331.95 12.89 332.29 12.31L332.29 12.31L332.29 12.31Q332.63 11.73 333.96 8.83L333.96 8.83L333.96 8.83Q335.33 5.87 336.38 3.63L336.38 3.63L336.38 3.63Q336.48 3.42 336.55 3.36L336.55 3.36L336.55 3.36Q336.63 3.30 336.80 3.30L336.80 3.30L336.80 3.30Q336.92 3.30 336.97 3.36L336.97 3.36L336.97 3.36Q337.01 3.42 337.15 3.82L337.15 3.82L337.15 3.82Q337.23 4.06 337.30 4.23L337.30 4.23L337.30 4.23Q337.36 4.40 337.50 4.77L337.50 4.77L337.50 4.77Q337.64 5.15 337.81 5.56L337.81 5.56L337.81 5.56Q338.25 6.66 339.35 9.22L339.35 9.22L339.35 9.22Q340.45 11.77 340.55 11.98L340.55 11.98L340.55 11.98Q340.79 12.46 341.08 12.71L341.08 12.71L341.08 12.71Q341.38 12.95 341.59 12.97L341.59 12.97L341.59 12.97Q341.81 12.99 341.96 13.04L341.96 13.04L341.96 13.04Q342.10 13.09 342.10 13.26L342.10 13.26L342.10 13.26Q342.10 13.47 341.73 13.47L341.73 13.47L341.73 13.47Q341.57 13.47 341.12 13.43L341.12 13.43L341.12 13.43Q340.68 13.38 340.47 13.38L340.47 13.38L340.47 13.38Q340.20 13.38 339.78 13.41L339.78 13.41L339.78 13.41Q339.36 13.44 339.16 13.44L339.16 13.44L339.16 13.44Q338.73 13.44 338.61 13.40L338.61 13.40L338.61 13.40Q338.49 13.37 338.49 13.24L338.49 13.24L338.49 13.24Q338.49 13.15 338.60 13.08L338.60 13.08L338.60 13.08Q338.72 13.02 338.84 13.00L338.84 13.00L338.84 13.00Q338.97 12.98 339.08 12.87L339.08 12.87L339.08 12.87Q339.19 12.77 339.19 12.59L339.19 12.59L339.19 12.59Q339.19 12.28 338.84 11.33L338.84 11.33L338.84 11.33Q338.49 10.37 338.25 9.93L338.25 9.93L338.25 9.93Q338.13 9.69 337.68 9.69L337.68 9.69L337.68 9.69Q337.61 9.69 337.06 9.70L337.06 9.70L337.06 9.70Q336.52 9.72 335.99 9.72L335.99 9.72L335.24 9.72L335.24 9.72Q334.61 9.72 334.45 9.79L334.45 9.79L334.45 9.79Q334.29 9.86 334.17 10.12L334.17 10.12L334.17 10.12Q334.08 10.30 333.89 10.70L333.89 10.70L333.89 10.70Q333.69 11.10 333.62 11.26L333.62 11.26L333.62 11.26Q333.55 11.41 333.44 11.65L333.44 11.65L333.44 11.65Q333.34 11.90 333.31 12.05L333.31 12.05L333.31 12.05Q333.27 12.19 333.27 12.31L333.27 12.31L333.27 12.31Q333.27 12.63 333.43 12.80L333.43 12.80L333.43 12.80Q333.59 12.96 333.79 12.98L333.79 12.98L333.79 12.98Q333.98 13.01 334.15 13.06L334.15 13.06L334.15 13.06Q334.31 13.12 334.31 13.26L334.31 13.26L334.31 13.26Q334.31 13.36 334.26 13.40L334.26 13.40L334.26 13.40Q334.22 13.45 334.07 13.45L334.07 13.45L334.07 13.45Q333.98 13.45 333.59 13.45L333.59 13.45L333.59 13.45Q333.19 13.44 332.91 13.44L332.91 13.44L332.91 13.44Q332.60 13.44 332.21 13.47L332.21 13.47L332.21 13.47Q331.83 13.50 331.70 13.50L331.70 13.50L331.70 13.50Q331.30 13.50 331.30 13.33ZM334.81 8.71L334.81 8.71L334.81 8.71Q334.81 8.89 334.94 8.93L334.94 8.93L334.94 8.93Q335.06 8.97 335.52 8.97L335.52 8.97L335.96 8.97L337.29 8.96L337.29 8.96Q337.83 8.96 337.83 8.74L337.83 8.74L337.83 8.74Q337.83 8.55 337.15 7.01L337.15 7.01L337.15 7.01Q336.46 5.46 336.28 5.46L336.28 5.46L336.28 5.46Q336.15 5.46 335.48 7.01L335.48 7.01L335.48 7.01Q334.81 8.55 334.81 8.71Z"></path></g></svg>