<svg data-v-fde0c5aa="" xmlns="http://www.w3.org/2000/svg" viewBox="0 0 300 300" class="font"><!----><defs data-v-fde0c5aa=""><linearGradient data-v-fde0c5aa="" gradientTransform="rotate(25)" id="8818253c-d08e-49ff-8bed-15cc9dfc14ec" x1="0%" y1="0%" x2="100%" y2="0%"><stop data-v-fde0c5aa="" offset="0%" stop-color="#8D2CE3" stop-opacity="1"></stop><stop data-v-fde0c5aa="" offset="100%" stop-color="#F7C6F6" stop-opacity="1"></stop></linearGradient></defs><rect data-v-fde0c5aa="" fill="url(#8818253c-d08e-49ff-8bed-15cc9dfc14ec)" x="0" y="0" width="300px" height="300px" class="logo-background-square"></rect><defs data-v-fde0c5aa=""><!----></defs><g data-v-fde0c5aa="" id="ad1c79a7-3d60-4a63-a6a5-626d60dc33ee" fill="#ffffff" transform="matrix(4.831978639707351,0,0,4.831978639707351,37.97056889068057,126.39578352708583)"><path d="M4.62 9.83L0.42 9.83L0.42 9.62L1.74 9.62L1.74 0.17L0.42 0.17L0.42-0.06L4.62-0.06L4.62 0.17L3.30 0.17L3.30 9.62L4.62 9.62L4.62 9.83ZM9.60 0.17L6.92 0.17L6.92 0.17Q6.17 0.17 5.87 0.76L5.87 0.76L5.87 0.76Q6.05 0.64 6.26 0.64L6.26 0.64L6.26 0.64Q6.58 0.64 6.82 0.88L6.82 0.88L6.82 0.88Q7.06 1.11 7.06 1.44L7.06 1.44L7.06 1.44Q7.06 1.76 6.82 2.00L6.82 2.00L6.82 2.00Q6.58 2.24 6.26 2.24L6.26 2.24L6.26 2.24Q5.92 2.24 5.69 2.01L5.69 2.01L5.69 2.01Q5.46 1.78 5.46 1.44L5.46 1.44L5.46 1.44Q5.46 0.78 5.87 0.37L5.87 0.37L5.87 0.37Q6.29-0.04 6.94-0.04L6.94-0.04L15.30-0.04L15.30 0.17L11.20 0.17L11.20 9.62L12.54 9.62L12.54 9.83L8.26 9.83L8.26 9.62L9.60 9.62L9.60 0.17ZM21.70 9.83L21.70 9.83L16.14 9.83L16.14 9.62L17.47 9.62L17.47 0.17L16.14 0.17L16.14-0.04L19.07-0.04L19.07 9.62L21.70 9.62L21.70 9.62Q22.46 9.62 22.78 9.03L22.78 9.03L22.78 9.03Q22.60 9.14 22.39 9.14L22.39 9.14L22.39 9.14Q22.06 9.14 21.83 8.90L21.83 8.90L21.83 8.90Q21.59 8.67 21.59 8.34L21.59 8.34L21.59 8.34Q21.59 8.01 21.83 7.78L21.83 7.78L21.83 7.78Q22.06 7.55 22.39 7.55L22.39 7.55L22.39 7.55Q22.71 7.55 22.95 7.78L22.95 7.78L22.95 7.78Q23.18 8.01 23.18 8.34L23.18 8.34L23.18 8.34Q23.18 9.00 22.77 9.41L22.77 9.41L22.77 9.41Q22.36 9.83 21.70 9.83ZM28.27 9.83L28.27 9.83L28.27 9.83Q27.29 9.83 26.50 9.39L26.50 9.39L26.50 9.39Q25.72 8.96 25.17 8.25L25.17 8.25L25.17 8.25Q24.61 7.55 24.32 6.66L24.32 6.66L24.32 6.66Q24.02 5.78 24.02 4.89L24.02 4.89L24.02 4.89Q24.02 3.99 24.32 3.11L24.32 3.11L24.32 3.11Q24.61 2.23 25.17 1.53L25.17 1.53L25.17 1.53Q25.72 0.83 26.50 0.38L26.50 0.38L26.50 0.38Q27.29-0.06 28.27-0.06L28.27-0.06L28.27-0.06Q29.25-0.06 30.03 0.38L30.03 0.38L30.03 0.38Q30.81 0.83 31.37 1.53L31.37 1.53L31.37 1.53Q31.92 2.23 32.21 3.11L32.21 3.11L32.21 3.11Q32.51 3.99 32.51 4.89L32.51 4.89L32.51 4.89Q32.51 5.78 32.21 6.66L32.21 6.66L32.21 6.66Q31.92 7.55 31.37 8.25L31.37 8.25L31.37 8.25Q30.81 8.96 30.03 9.39L30.03 9.39L30.03 9.39Q29.25 9.83 28.27 9.83ZM30.91 6.96L30.91 2.81L30.91 2.81Q30.91 2.27 30.70 1.78L30.70 1.78L30.70 1.78Q30.49 1.30 30.14 0.94L30.14 0.94L30.14 0.94Q29.78 0.59 29.30 0.38L29.30 0.38L29.30 0.38Q28.81 0.17 28.27 0.17L28.27 0.17L28.27 0.17Q27.72 0.17 27.24 0.38L27.24 0.38L27.24 0.38Q26.75 0.59 26.40 0.94L26.40 0.94L26.40 0.94Q26.04 1.30 25.83 1.78L25.83 1.78L25.83 1.78Q25.62 2.27 25.62 2.81L25.62 2.81L25.62 6.96L25.62 6.96Q25.62 7.50 25.83 7.99L25.83 7.99L25.83 7.99Q26.04 8.48 26.40 8.84L26.40 8.84L26.40 8.84Q26.75 9.20 27.24 9.41L27.24 9.41L27.24 9.41Q27.72 9.62 28.27 9.62L28.27 9.62L28.27 9.62Q28.81 9.62 29.30 9.41L29.30 9.41L29.30 9.41Q29.78 9.20 30.14 8.84L30.14 8.84L30.14 8.84Q30.49 8.48 30.70 7.99L30.70 7.99L30.70 7.99Q30.91 7.50 30.91 6.96L30.91 6.96ZM45.95 0.17L44.60 0.17L44.60 9.62L45.95 9.62L45.95 9.83L41.65 9.83L41.65 9.62L43.01 9.62L43.01 0.52L43.01 0.52Q41.90 2.70 40.81 4.87L40.81 4.87L40.81 4.87Q39.72 7.04 38.63 9.23L38.63 9.23L34.92 0.57L34.92 9.62L36.26 9.62L36.26 9.83L33.35 9.83L33.35 9.62L34.69 9.62L34.69 0.17L33.35 0.17L33.35-0.06L36.26-0.06L39.40 7.24L43.05-0.06L45.95-0.06L45.95 0.17Z"></path></g><!----><!----></svg>